STARTFONT 2.3
FONT -FontForge-Fredoka One-Book-R-Normal--24-240-72-72-P-138-ISO10646-1
SIZE 24 72 72  4
FONTBOUNDINGBOX 33 30 -4 -6
COMMENT "Generated by fontforge, http://fontforge.sourceforge.net"
COMMENT "Copyright (c) 2011 Milena B Brandao (milenabbrandao@gmail.com), with Reserved Font Name "Fredoka""
STARTPROPERTIES 40
FOUNDRY "FontForge"
FAMILY_NAME "Fredoka One"
WEIGHT_NAME "Book"
SLANT "R"
SETWIDTH_NAME "Normal"
ADD_STYLE_NAME ""
PIXEL_SIZE 24
POINT_SIZE 240
RESOLUTION_X 72
RESOLUTION_Y 72
SPACING "P"
AVERAGE_WIDTH 138
CHARSET_REGISTRY "ISO10646"
CHARSET_ENCODING "1"
FONTNAME_REGISTRY ""
CHARSET_COLLECTIONS "ISO10646-1"
BITS_PER_PIXEL 4
FONT_NAME "FredokaOne-Regular"
FACE_NAME "Fredoka One"
COPYRIGHT "Copyright (c) 2011 Milena B Brandao (milenabbrandao@gmail.com), with Reserved Font Name "Fredoka""
FONT_VERSION "1.001"
FONT_ASCENT 19
FONT_DESCENT 5
UNDERLINE_POSITION -2
UNDERLINE_THICKNESS 2
X_HEIGHT 12
CAP_HEIGHT 17
RAW_ASCENT 800
RAW_DESCENT 200
NORM_SPACE 6
RELATIVE_WEIGHT 40
RELATIVE_SETWIDTH 50
SUPERSCRIPT_X 0
SUPERSCRIPT_Y 11
SUPERSCRIPT_SIZE 15
SUBSCRIPT_X 0
SUBSCRIPT_Y 3
SUBSCRIPT_SIZE 15
AVG_LOWERCASE_WIDTH 137
AVG_UPPERCASE_WIDTH 163
ENDPROPERTIES
CHARS 235
STARTCHAR space
ENCODING 32
SWIDTH 253 0
DWIDTH 6 0
BBX 1 1 0 0
BITMAP
00
ENDCHAR
STARTCHAR exclam
ENCODING 33
SWIDTH 267 0
DWIDTH 6 0
BBX 5 18 1 0
BITMAP
49A700
DFFF40
EFFF50
EFFF50
EFFF50
EFFF50
EFFF50
EFFF50
EFFF50
EFFF50
DFFF40
49A700
000000
167400
CFFF40
FFFF70
EFFF60
7EFC10
ENDCHAR
STARTCHAR quotedbl
ENCODING 34
SWIDTH 429 0
DWIDTH 10 0
BBX 10 9 0 9
BITMAP
0696004881
4FFF40EFF8
6FFF51FFFA
5FFF51FFFA
4FFF40EFF9
2FFF10CFF6
0EFD009FF3
0AF9005FE0
02C2000A50
ENDCHAR
STARTCHAR numbersign
ENCODING 35
SWIDTH 749 0
DWIDTH 18 0
BBX 18 18 0 0
BITMAP
000002783000278300
00000BFFA000AFFA00
00000DFF8000DFF800
00001FFF6001FFF600
00003FFF3003FFF300
03EFFFFFFFFFFFFFF6
09FFFFFFFFFFFFFFF8
09FFFFFFFFFFFFFFF3
0022EFF9222EFF9210
0001FFF6001FFF6000
0235FFF6335FFF6300
4FFFFFFFFFFFFFFF80
9FFFFFFFFFFFFFFF80
7EFFFFFFFFFFFFFD30
000DFF8000DFF90000
001FFF6000FFF60000
003FFF3003FFF30000
002CD90001CD900000
ENDCHAR
STARTCHAR dollar
ENCODING 36
SWIDTH 475 0
DWIDTH 11 0
BBX 11 21 0 -2
BITMAP
000028500000
0000AFF10000
0000BFF20000
0003DFF61000
00AFFFFFE400
08FFFFFFFE00
0EFFD8BFF800
2FFF40057000
0FFFB4000000
0AFFFFEB5000
01DFFFFFFC10
0006BFFFFF70
0020005EFFB0
0BF9000AFFC0
5FFFB67FFF90
1EFFFFFFFF30
03DFFFFFE500
0016DFF82000
0000BFF20000
0000AFF10000
00006EB00000
ENDCHAR
STARTCHAR percent
ENCODING 37
SWIDTH 838 0
DWIDTH 20 0
BBX 19 20 1 -1
BITMAP
0000000000001B500000
0069961000008FC00000
1CFFFFD10002FF400000
8FFFFFF90009FB000000
DFE55EFE002FF3000000
FF9009FF00AFA0000000
FFA00BFF03FF30000000
CFFABFFC0BFA00000000
5FFFFFF64FF200000000
07EFFF80CF9000000000
00134105FE129DDB4000
0000000DF81DFFFFF400
0000006FE18FFFFFFC00
000000DF70DFE10BFF10
000007FD00EFB007FF20
00001EF600DFD10AFF10
00007FD0009FFEEFFD00
0001EF50002EFFFFF600
0007FC000003BFFD6000
00029300000000000000
ENDCHAR
STARTCHAR ampersand
ENCODING 38
SWIDTH 748 0
DWIDTH 18 0
BBX 18 20 0 -1
BITMAP
000002576300000000
0001BFFFFFD3000000
000CFFFFFFFE100000
005FFFFCEFFF700000
008FFF503FFF900000
008FFF408FFF800000
006FFF8AFFFF300000
003FFFFFFFF8000000
000DFFFFFF80000000
002EFFFFE500000000
01EFFFFFB0003BDC20
0AFFFFFFF900AFFF50
2FFFFDFFFF92FFFF20
5FFFE1CFFFFEFFFB00
6FFFE02DFFFFFFF300
4FFFFB68FFFFFFFEB1
0DFFFFFFFFFFFFFFF5
04FFFFFFFFFFFFFFF5
003AEFFFFB517BEFD1
000002320000000000
ENDCHAR
STARTCHAR quotesingle
ENCODING 39
SWIDTH 208 0
DWIDTH 5 0
BBX 5 9 0 9
BITMAP
069600
4FFF40
6FFF50
5FFF50
4FFF40
2FFF10
0EFD00
0AF900
02C200
ENDCHAR
STARTCHAR parenleft
ENCODING 40
SWIDTH 384 0
DWIDTH 9 0
BBX 9 25 0 -6
BITMAP
0000037940
00009FFFC0
0008FFFFC0
003FFFD730
00BFFE1000
02FFF70000
07FFF10000
0AFFC00000
0EFF900000
1FFF700000
3FFF600000
4FFF500000
4FFF500000
4FFF500000
3FFF600000
1FFF700000
0DFF900000
0AFFC00000
06FFF10000
01FFF70000
00AFFE2000
002FFFE940
0006FFFFC0
00006FFFC0
0000016720
ENDCHAR
STARTCHAR parenright
ENCODING 41
SWIDTH 384 0
DWIDTH 9 0
BBX 9 25 0 -6
BITMAP
2884000000
9FFFB10000
9FFFFB0000
27BFFF6000
000CFFE000
0004FFF500
0000DFFA00
00009FFE00
00006FFF20
00004FFF40
00003FFF60
00002FFF70
00002FFF70
00002FFF70
00003FFF60
00004FFF40
00006FFF20
00009FFD00
0000DFF900
0004FFF400
000CFFD000
29DFFF5000
9FFFF90000
8FFF900000
1662000000
ENDCHAR
STARTCHAR asterisk
ENCODING 42
SWIDTH 503 0
DWIDTH 12 0
BBX 12 12 0 6
BITMAP
00006CC60000
0000DFFE0000
0340DFFF0440
2FFEFFFFEFF4
8FFFFFFFFFF9
8FFFFFFFFFF9
07CFFFFFFC71
008FFFFFF900
03FFFFFFFF40
04FFFCBFFF50
006EE21DF700
000110001000
ENDCHAR
STARTCHAR plus
ENCODING 43
SWIDTH 527 0
DWIDTH 13 0
BBX 12 13 0 0
BITMAP
000003410000
00006FFE1000
00008FFF3000
00008FFF4000
0577CFFF9773
4FFFFFFFFFFE
6FFFFFFFFFFF
3FFFFFFFFFFD
0355BFFF7541
00008FFF4000
00008FFF3000
00004FFD1000
000001200000
ENDCHAR
STARTCHAR comma
ENCODING 44
SWIDTH 238 0
DWIDTH 6 0
BBX 6 9 0 -4
BITMAP
047620
3FFFD0
6FFFF1
5FFFF1
1BFFD0
00EF90
07FF20
4FF800
3B6000
ENDCHAR
STARTCHAR hyphen
ENCODING 45
SWIDTH 433 0
DWIDTH 10 0
BBX 10 5 0 3
BITMAP
0022222210
2EFFFFFFF7
6FFFFFFFFB
5FFFFFFFFA
08AAAAAA93
ENDCHAR
STARTCHAR period
ENCODING 46
SWIDTH 237 0
DWIDTH 6 0
BBX 6 5 0 0
BITMAP
047610
3FFFD0
6FFFF1
5FFFF1
1CFF90
ENDCHAR
STARTCHAR slash
ENCODING 47
SWIDTH 526 0
DWIDTH 13 0
BBX 13 21 0 -2
BITMAP
000000002B8200
00000000AFFE20
00000002FFFF20
0000000AFFFC00
0000002FFFF400
0000009FFFC000
000002FFFF5000
000008FFFD0000
00001EFFF50000
00008FFFD00000
0001EFFF600000
0007FFFD000000
001EFFF7000000
006FFFE1000000
00DFFF70000000
06FFFE10000000
0DFFF800000000
5FFFE100000000
9FFF8000000000
3DFE1000000000
00420000000000
ENDCHAR
STARTCHAR zero
ENCODING 48
SWIDTH 608 0
DWIDTH 15 0
BBX 14 19 0 -1
BITMAP
000039CCB71000
0009FFFFFFE400
009FFFFFFFFE30
03FFFFFFFFFFC0
09FFFF96CFFFF3
0EFFF8001EFFF7
2FFFF20008FFFB
5FFFE00005FFFD
5FFFD00004FFFE
6FFFD00004FFFE
5FFFE00005FFFE
4FFFF10007FFFC
1FFFF5000BFFFA
0CFFFD206FFFF6
07FFFFFFFFFFE1
01DFFFFFFFFF70
003EFFFFFFFB00
0002BFFFFE8000
00000145300000
ENDCHAR
STARTCHAR one
ENCODING 49
SWIDTH 407 0
DWIDTH 10 0
BBX 9 18 0 0
BITMAP
0000038820
00005FFFB0
0007FFFFC0
008FFFFFC0
0AFFFFFFC0
7FFFFFFFC0
7FFFFFFFC0
1CFEBFFFC0
01417FFFC0
00007FFFC0
00007FFFC0
00007FFFC0
00007FFFC0
00007FFFC0
00007FFFC0
00007FFFC0
00006FFFC0
00002DFE60
ENDCHAR
STARTCHAR two
ENCODING 50
SWIDTH 609 0
DWIDTH 15 0
BBX 15 19 0 -1
BITMAP
00005ACCA6000000
002CFFFFFFD20000
01DFFFFFFFFE2000
09FFFFFFFFFFA000
1FFFFE77DFFFF200
4FFFF3001EFFF600
6FFFD0000CFFF800
5FFFC0001EFFF700
08BA3001BFFFF400
0000002CFFFFC000
000007EFFFFF3000
0004DFFFFFE40000
007FFFFFFC200000
07FFFFFE93333100
2FFFFFFFFFFFFE10
5FFFFFFFFFFFFF30
4FFFFFFFFFFFFF30
09FFFFFFFFFFFB00
0001111111110000
ENDCHAR
STARTCHAR three
ENCODING 51
SWIDTH 608 0
DWIDTH 15 0
BBX 14 19 0 -1
BITMAP
00005ACDB82000
001CFFFFFFF700
00CFFFFFFFFF70
05FFFFFFFFFFF2
0AFFFE748FFFF7
04FFF5000BFFF9
002860468EFFF7
000006FFFFFFE2
000009FFFFFE20
000008FFFFFF90
000002BDEFFFF6
069920001BFFFD
5FFFC00005FFFE
4FFFF7001BFFFD
1EFFFFEDFFFFF9
07FFFFFFFFFFE2
009FFFFFFFFE30
0005CFFFFF9200
00000244300000
ENDCHAR
STARTCHAR four
ENCODING 52
SWIDTH 592 0
DWIDTH 14 0
BBX 14 18 0 0
BITMAP
00099500049950
007FFF800EFFF2
00BFFFA00FFFF4
00EFFF600FFFF4
03FFFF300FFFF4
07FFFE000FFFF4
0AFFFA000FFFF4
0EFFF6000FFFF4
3FFFF3111FFFF4
7FFFFFFFFFFFF4
9FFFFFFFFFFFF4
9FFFFFFFFFFFF4
3CEEEEEEEFFFF4
000000000FFFF4
000000000FFFF4
000000000FFFF4
000000000FFFF3
0000000008EEA0
ENDCHAR
STARTCHAR five
ENCODING 53
SWIDTH 530 0
DWIDTH 13 0
BBX 13 19 0 -1
BITMAP
0039A999998200
01EFFFFFFFF900
06FFFFFFFFFB00
08FFFFFFFFFA00
0AFFFC99998200
0CFFF700000000
0EFFFC97200000
1FFFFFFFF80000
3FFFFFFFFFA000
5FFFFFFFFFF600
1CFFFBBFFFFC00
00584007FFFF10
00200003FFFF10
09FD401AFFFF00
6FFFFFFFFFFA00
8FFFFFFFFFF300
1BFFFFFFFF6000
007DFFFFD40000
00003553000000
ENDCHAR
STARTCHAR six
ENCODING 54
SWIDTH 560 0
DWIDTH 13 0
BBX 13 19 0 -1
BITMAP
00000003689600
000006DFFFFF30
0001BFFFFFFF50
000BFFFFFFFF30
008FFFFFEBA700
02FFFFE5000000
08FFFE20000000
0DFFF967410000
2FFFFFFFFE6000
4FFFFFFFFFF800
5FFFFFFFFFFF40
6FFFFB56EFFFA0
5FFFF1007FFFC0
2FFFF2008FFFB0
0CFFFEABFFFF80
05FFFFFFFFFE10
009FFFFFFFE400
0007EFFFFB3000
00000344100000
ENDCHAR
STARTCHAR seven
ENCODING 55
SWIDTH 561 0
DWIDTH 13 0
BBX 14 18 0 0
BITMAP
17888888888830
8FFFFFFFFFFFE0
9FFFFFFFFFFFF1
8FFFFFFFFFFFF0
19AAAAABFFFFA0
00000007FFFF40
0000002EFFFB00
000000BFFFF300
000006FFFF9000
00001EFFFE1000
00009FFFF50000
0001FFFFB00000
0007FFFF300000
000BFFFC000000
000FFFF6000000
001FFFF3000000
002FFFF1000000
000BFFB0000000
ENDCHAR
STARTCHAR eight
ENCODING 56
SWIDTH 582 0
DWIDTH 14 0
BBX 14 19 0 -1
BITMAP
00006BEEB60000
002CFFFFFFC200
01DFFFFFFFFD00
07FFFFFFFFFF60
0CFFFC33DFFFB0
0DFFF7007FFFC0
0BFFFD55DFFFA0
04FFFFFFFFFF40
00BFFFFFFFFA00
05FFFFFFFFFF40
0EFFFFBBFFFFD0
4FFFF3004FFFF4
6FFFD0000EFFF5
4FFFF4005FFFF4
1EFFFFCCFFFFE0
08FFFFFFFFFF70
00AFFFFFFFF900
0005DFFFFD5000
00000255200000
ENDCHAR
STARTCHAR nine
ENCODING 57
SWIDTH 560 0
DWIDTH 13 0
BBX 13 18 0 0
BITMAP
00028CDC940000
005EFFFFFF9000
05FFFFFFFFF700
0DFFFFFFFFFF10
4FFFF514DFFF70
6FFFC0009FFFA0
5FFFE201CFFFC0
1EFFFFDEFFFFC0
07FFFFFFFFFFB0
008FFFFFFFFFA0
00039DDBFFFF70
00000005FFFF30
0000004EFFFB00
00235AFFFFF400
09FFFFFFFF8000
0EFFFFFFFA0000
0DFFFFFE700000
07FFEC72000000
ENDCHAR
STARTCHAR colon
ENCODING 58
SWIDTH 238 0
DWIDTH 6 0
BBX 6 13 0 0
BITMAP
001100
1DFF90
5FFFF1
5FFFF1
2FFFD0
025510
000000
000000
036620
3FFFD0
6FFFF1
5FFFF1
1BFF90
ENDCHAR
STARTCHAR semicolon
ENCODING 59
SWIDTH 237 0
DWIDTH 6 0
BBX 6 17 0 -4
BITMAP
002100
2DFF90
6FFFF1
6FFFF1
2FFFD0
025510
000000
000000
047610
3FFFD0
6FFFF1
5FFFF1
1CFFE0
00EFA0
06FF30
4FF800
3C6000
ENDCHAR
STARTCHAR less
ENCODING 60
SWIDTH 627 0
DWIDTH 15 0
BBX 15 17 0 0
BITMAP
0000000000016300
00000000006EFE20
000000003CFFFF80
00000019FFFFFF60
000006EFFFFFD500
0004CFFFFFF81000
01AFFFFFFB200000
3EFFFFFD40000000
9FFFFF8000000000
7FFFFFE600000000
08FFFFFFC3000000
002BFFFFFF910000
00005DFFFFFE7000
0000008EFFFFFC20
00000002AFFFFF90
0000000004DFFF50
000000000007D900
ENDCHAR
STARTCHAR equal
ENCODING 61
SWIDTH 478 0
DWIDTH 11 0
BBX 11 9 0 1
BITMAP
18ABBBBBBA40
5FFFFFFFFFC0
5FFFFFFFFFC0
1BEEEEEEED70
000000000000
079999999930
5FFFFFFFFFB0
5FFFFFFFFFC0
2CFFFFFFFF70
ENDCHAR
STARTCHAR greater
ENCODING 62
SWIDTH 627 0
DWIDTH 15 0
BBX 15 17 0 0
BITMAP
0361000000000000
2EFE600000000000
8FFFFC3000000000
6FFFFFF910000000
04DFFFFFE7000000
0008FFFFFFC40000
00002AFFFFFFA200
0000004DFFFFFE30
000000008FFFFF90
00000006EFFFFF70
000003CFFFFFF800
00019FFFFFFB2000
006EFFFFFD500000
2CFFFFFF81000000
9FFFFFB200000000
5FFFD50000000000
09D7000000000000
ENDCHAR
STARTCHAR question
ENCODING 63
SWIDTH 512 0
DWIDTH 12 0
BBX 12 18 0 0
BITMAP
0018DFFC7100
02DFFFFFFC10
0CFFFFFFFFC0
6FFFFDDFFFF5
9FFF7006FFF9
2CFE1002FFFA
00210008FFF8
000006CFFFF3
00007FFFFF80
0000CFFFE600
0000CFFF1000
00004AA60000
000000000000
000026630000
0001EFFF1000
0003FFFF4000
0002FFFF3000
0000AFFB0000
ENDCHAR
STARTCHAR at
ENCODING 64
SWIDTH 908 0
DWIDTH 22 0
BBX 22 20 0 -4
BITMAP
0000005ADFFEDA71000000
00004DFFFFFFFFFF910000
0007FFFFFFEFFFFFFE3000
006FFFE8300025BFFFE300
02EFFB1015622653DFFC00
09FFC105EFFECFF32EFF50
0EFF405FFFFFFFF206FFB0
3FFD01EFFDAFFFF001FFF0
5FFA05FFC007FFD000DFF1
6FF907FFA007FFB000CFF2
5FFA06FFF77FFF9000DFF1
4FFC01EFFFFFFF7001FFE0
1FFF206FFFFFFF5008FFB0
0BFF8003995BFF518FFF50
05FFF5000009FFFFFFFA00
00BFFF930003EFFFFFA100
001DFFFFFDC13BEEB50000
0001AFFFFFF30000000000
0000049DFFE10000000000
0000000002100000000000
ENDCHAR
STARTCHAR A
ENCODING 65
SWIDTH 765 0
DWIDTH 18 0
BBX 18 19 0 -1
BITMAP
000000007820000000
0000000AFFE1000000
0000003FFFF8000000
000000AFFFFE100000
000002FFFFFF700000
000009FFFFFFE10000
00002FFFFFFFF70000
00009FFFFDFFFE0000
0002FFFFA5FFFF6000
0008FFFF20CFFFD000
001EFFFC449FFFF600
008FFFFFFFFFFFFD00
01EFFFFFFFFFFFFF50
07FFFFFFFFFFFFFFD0
1EFFFB4444447FFFF5
6FFFF40000000DFFFC
8FFFC000000006FFFE
1AFF4000000000DFD4
002100000000001300
ENDCHAR
STARTCHAR B
ENCODING 66
SWIDTH 646 0
DWIDTH 16 0
BBX 15 18 0 0
BITMAP
0389999999610000
0EFFFFFFFFFE6000
1FFFFFFFFFFFF500
1FFFFFFFFFFFFE00
1FFFFB99ACFFFF40
1FFFF30000EFFF60
1FFFF30001EFFF40
1FFFF307DFFFFE10
1FFFF30EFFFFF900
1FFFF30DFFFFFF20
1FFFF30379EFFF90
1FFFF300007FFFC0
1FFFF300006FFFD0
1FFFF64445DFFFB0
1FFFFFFFFFFFFF70
1FFFFFFFFFFFFD10
0FFFFFFFFFFFD300
08EFFFFFFED81000
ENDCHAR
STARTCHAR C
ENCODING 67
SWIDTH 679 0
DWIDTH 16 0
BBX 16 19 0 -1
BITMAP
00000027ABB84000
00002AFFFFFFFD50
0006FFFFFFFFFFF6
006FFFFFFFFFFFF9
02FFFFFEA89DFFF3
0AFFFF9100006C50
1FFFFA0000000000
4FFFF30000000000
5FFFE00000000000
6FFFD00000000000
4FFFF10000000000
1FFFF60000000000
0CFFFE3000001510
05FFFFF83126EFC0
00AFFFFFFFFFFFF6
001BFFFFFFFFFFF9
00008FFFFFFFFFC2
0000029EFFFFB500
0000000023300000
ENDCHAR
STARTCHAR D
ENCODING 68
SWIDTH 704 0
DWIDTH 17 0
BBX 17 18 0 0
BITMAP
038999998510000000
0EFFFFFFFFF9100000
1FFFFFFFFFFFE30000
1FFFFFFFFFFFFE3000
1FFFFBAACFFFFFD100
1FFFF30002CFFFF800
1FFFF300001CFFFD00
1FFFF3000004FFFF20
1FFFF3000000FFFF40
1FFFF3000000FFFF40
1FFFF3000002FFFF20
1FFFF3000009FFFE00
1FFFF300007FFFF900
1FFFF6446BFFFFF200
1FFFFFFFFFFFFF6000
1FFFFFFFFFFFF80000
0FFFFFFFFFFE500000
08EFFFFEDB61000000
ENDCHAR
STARTCHAR E
ENCODING 69
SWIDTH 638 0
DWIDTH 15 0
BBX 15 18 0 0
BITMAP
0389999999999710
0DFFFFFFFFFFFF90
0FFFFFFFFFFFFFB0
1FFFFFFFFFFFFF90
1FFFFBAAAAAAA920
1FFFF30000000000
1FFFF30000000000
1FFFFEEEEED80000
1FFFFFFFFFFF0000
1FFFFFFFFFFF1000
1FFFFFFFFFFC0000
1FFFF75555410000
1FFFF30000000000
1FFFF64444444200
1FFFFFFFFFFFFF60
1FFFFFFFFFFFFFA0
0FFFFFFFFFFFFFA0
08EFFFFFFFFFFE40
ENDCHAR
STARTCHAR F
ENCODING 70
SWIDTH 637 0
DWIDTH 15 0
BBX 15 18 0 0
BITMAP
0389999999999710
0DFFFFFFFFFFFF80
0FFFFFFFFFFFFFA0
1FFFFFFFFFFFFF90
1FFFFBAAAAAAA920
1FFFF30000000000
1FFFF30000000000
1FFFFEEEEED70000
1FFFFFFFFFFF0000
1FFFFFFFFFFF0000
1FFFFFFFFFFC0000
1FFFF75555510000
1FFFF30000000000
1FFFF30000000000
1FFFF30000000000
1FFFF30000000000
0FFFF30000000000
08EFA00000000000
ENDCHAR
STARTCHAR G
ENCODING 71
SWIDTH 714 0
DWIDTH 17 0
BBX 17 19 0 -1
BITMAP
0000005ACDCA600000
00005DFFFFFFFE5000
0008FFFFFFFFFFF600
007FFFFFFFFFFFF800
03FFFFFC767CFFD100
0AFFFF700000592000
1FFFF8000000000000
4FFFF1001899999400
5FFFD0007FFFFFFF10
5FFFD0008FFFFFFF20
4FFFF1003DEEFFFF30
1FFFF8000001FFFF30
0BFFFF500001FFFF30
04FFFFF93126FFFF30
009FFFFFFFFFFFFF20
000BFFFFFFFFFFFD00
00009FFFFFFFFFD300
000003AEFFFFC71000
000000002321000000
ENDCHAR
STARTCHAR H
ENCODING 72
SWIDTH 699 0
DWIDTH 17 0
BBX 16 18 0 0
BITMAP
0388400000005882
0EFFF2000005FFFB
1FFFF3000007FFFC
1FFFF3000007FFFC
1FFFF3000007FFFC
1FFFF3000007FFFC
1FFFF3000007FFFC
1FFFFA88888BFFFC
1FFFFFFFFFFFFFFC
1FFFFFFFFFFFFFFC
1FFFFFFFFFFFFFFC
1FFFF3000007FFFC
1FFFF3000007FFFC
1FFFF3000007FFFC
1FFFF3000007FFFC
1FFFF3000007FFFC
0FFFF3000006FFFC
08EEA0000001CED5
ENDCHAR
STARTCHAR I
ENCODING 73
SWIDTH 257 0
DWIDTH 6 0
BBX 6 18 0 0
BITMAP
038840
0EFFF2
1FFFF3
1FFFF3
1FFFF3
1FFFF3
1FFFF3
1FFFF3
1FFFF3
1FFFF3
1FFFF3
1FFFF3
1FFFF3
1FFFF3
1FFFF3
1FFFF3
0FFFF3
08EFA0
ENDCHAR
STARTCHAR J
ENCODING 74
SWIDTH 549 0
DWIDTH 13 0
BBX 13 19 0 -1
BITMAP
00000000288400
00000000DFFF10
00000000FFFF30
00000000FFFF30
00000000FFFF30
00000000FFFF30
00000000FFFF30
00000000FFFF30
00000000FFFF30
00000000FFFF30
00000000FFFF30
00000001FFFF30
01840003FFFF20
1DFF823CFFFE00
8FFFFFFFFFF900
5FFFFFFFFFE200
08FFFFFFFE3000
004CFFFEA20000
00001330000000
ENDCHAR
STARTCHAR K
ENCODING 75
SWIDTH 639 0
DWIDTH 15 0
BBX 15 19 0 -1
BITMAP
03884000001AA200
0EFFF20001CFFE20
1FFFF3000BFFFF60
1FFFF3009FFFFE10
1FFFF307FFFFE300
1FFFF35FFFFF4000
1FFFF7FFFFF40000
1FFFFFFFFE400000
1FFFFFFFE4000000
1FFFFFFFC1000000
1FFFFFFFFC100000
1FFFFBFFFFC10000
1FFFF3AFFFFC1000
1FFFF30BFFFFC100
1FFFF301DFFFFB00
1FFFF3002EFFFF50
0FFFF30003EFFF40
08EFA000004EF600
0000000000011000
ENDCHAR
STARTCHAR L
ENCODING 76
SWIDTH 587 0
DWIDTH 14 0
BBX 14 18 0 0
BITMAP
03884000000000
0EFFF200000000
1FFFF300000000
1FFFF300000000
1FFFF300000000
1FFFF300000000
1FFFF300000000
1FFFF300000000
1FFFF300000000
1FFFF300000000
1FFFF300000000
1FFFF300000000
1FFFF300000000
1FFFF300000000
1FFFFA88888870
1FFFFFFFFFFFF6
0FFFFFFFFFFFF7
08EFFFFFFFFFD3
ENDCHAR
STARTCHAR M
ENCODING 77
SWIDTH 870 0
DWIDTH 21 0
BBX 20 18 0 0
BITMAP
03884000000000005872
0EFFF50000000007FFFC
1FFFFE200000004FFFFE
1FFFFFC0000001EFFFFE
1FFFFFF900000BFFFFFE
1FFFFFFF50008FFFFFFE
1FFFFFFFE204FFFFFFFE
1FFFFFFFFD2EFFFFFFFE
1FFFF7FFFFFFFFE8FFFE
1FFFF39FFFFFFF65FFFE
1FFFF30CFFFFFA05FFFE
1FFFF302EFFFD105FFFE
1FFFF3005FFF3005FFFE
1FFFF30003620005FFFE
1FFFF30000000005FFFE
1FFFF30000000005FFFE
0FFFF20000000004FFFD
08EEA00000000001BED6
ENDCHAR
STARTCHAR N
ENCODING 78
SWIDTH 720 0
DWIDTH 17 0
BBX 17 18 0 0
BITMAP
038840000000278500
0EFFF5000000CFFF30
1FFFFE200000EFFF50
1FFFFFC00000EFFF50
1FFFFFF80000EFFF50
1FFFFFFF4000EFFF50
1FFFFFFFE200EFFF50
1FFFFFFFFB00EFFF50
1FFFF9FFFF80EFFF50
1FFFF3AFFFF4EFFF50
1FFFF31DFFFEEFFF50
1FFFF303FFFFFFFF50
1FFFF3006FFFFFFF50
1FFFF3000AFFFFFF50
1FFFF30001DFFFFF50
1FFFF300003FFFFF50
0FFFF2000006FFFF40
08EFA00000008EFB10
ENDCHAR
STARTCHAR O
ENCODING 79
SWIDTH 775 0
DWIDTH 19 0
BBX 18 19 0 -1
BITMAP
00000049BCA7200000
00004DFFFFFFFA1000
0007FFFFFFFFFFD300
006FFFFFFFFFFFFD10
02FFFFFD87AFFFFFB0
09FFFF800002DFFFF4
0EFFFA0000002EFFF9
3FFFF200000008FFFD
5FFFE000000005FFFE
6FFFD000000004FFFF
5FFFF000000006FFFD
2FFFF50000000BFFFA
0DFFFE2000006FFFF6
06FFFFE61029FFFFE1
00BFFFFFFFFFFFFF50
001DFFFFFFFFFFF800
0001BFFFFFFFFF7000
000005CFFFFEA30000
000000013431000000
ENDCHAR
STARTCHAR P
ENCODING 80
SWIDTH 632 0
DWIDTH 15 0
BBX 15 18 0 0
BITMAP
0389999986200000
0EFFFFFFFFF91000
1FFFFFFFFFFFC100
1FFFFFFFFFFFFA00
1FFFFBAABFFFFF20
1FFFF30003EFFF60
1FFFF30000BFFF80
1FFFF30000CFFF70
1FFFF41129FFFF50
1FFFFFFFFFFFFE00
1FFFFFFFFFFFF600
1FFFFFFFFFFF7000
1FFFFFFFFEA30000
1FFFF52220000000
1FFFF30000000000
1FFFF30000000000
0FFFF30000000000
08EEA00000000000
ENDCHAR
STARTCHAR Q
ENCODING 81
SWIDTH 830 0
DWIDTH 20 0
BBX 20 19 0 -1
BITMAP
00000049BCA720000000
00004DFFFFFFFA100000
0007FFFFFFFFFFD30000
006FFFFFFFFFFFFD1000
02FFFFFD87AFFFFFB000
09FFFF800002DFFFF400
0EFFFA0000002EFFF900
3FFFF200000008FFFC00
5FFFE000000005FFFE00
6FFFD000000004FFFF00
5FFFF000000006FFFD00
2FFFF50000000BFFFA00
0DFFFE2000006FFFF500
06FFFFE61029FFFFF800
00BFFFFFFFFFFFFFFFC1
001DFFFFFFFFFFFFFFF7
0001BFFFFFFFFFBFFFF3
000005CFFFFFA304DF90
00000001343000000300
ENDCHAR
STARTCHAR R
ENCODING 82
SWIDTH 631 0
DWIDTH 15 0
BBX 15 19 0 -1
BITMAP
0389999997200000
0EFFFFFFFFFA1000
1FFFFFFFFFFFD100
1FFFFFFFFFFFFA00
1FFFFBAABFFFFF20
1FFFF30003EFFF70
1FFFF30000AFFF80
1FFFF30000CFFF80
1FFFF41128FFFF50
1FFFFFFFFFFFFE10
1FFFFFFFFFFFF600
1FFFFFFFFFFFE000
1FFFFFFFFFFFF500
1FFFF5222DFFFB00
1FFFF30007FFFF30
1FFFF30001EFFF90
0FFFF300009FFFA0
08EEA000002EFB20
0000000000001000
ENDCHAR
STARTCHAR S
ENCODING 83
SWIDTH 583 0
DWIDTH 14 0
BBX 14 19 0 -1
BITMAP
00018BDCA71000
004EFFFFFFE600
03FFFFFFFFFF30
0BFFFFFFFFFF30
0FFFFA229FF800
1FFFF300035000
0EFFFB20000000
0AFFFFFDA61000
02EFFFFFFFE800
003CFFFFFFFF90
000049DFFFFFF1
000000029FFFF4
05EC20000EFFF5
3FFFE4003FFFF4
5FFFFFCCFFFFE1
0CFFFFFFFFFF80
01CFFFFFFFFA00
0006DFFFFC5000
00000133100000
ENDCHAR
STARTCHAR T
ENCODING 84
SWIDTH 731 0
DWIDTH 18 0
BBX 18 18 0 0
BITMAP
289999999999999960
9FFFFFFFFFFFFFFFF1
9FFFFFFFFFFFFFFFF2
3CDDDDEFFFFDDDDDA0
0000004FFFD0000000
0000004FFFD0000000
0000004FFFD0000000
0000004FFFD0000000
0000004FFFD0000000
0000004FFFD0000000
0000004FFFD0000000
0000004FFFD0000000
0000004FFFD0000000
0000004FFFD0000000
0000004FFFD0000000
0000004FFFD0000000
0000004FFFC0000000
0000001BFE60000000
ENDCHAR
STARTCHAR U
ENCODING 85
SWIDTH 726 0
DWIDTH 17 0
BBX 17 19 0 -1
BITMAP
038950000000189600
0EFFF1000000AFFF50
1FFFF3000000CFFF70
1FFFF4000000CFFF70
1FFFF4000000CFFF70
1FFFF4000000CFFF70
1FFFF4000000CFFF70
1FFFF4000000CFFF70
1FFFF4000000CFFF70
1FFFF4000000CFFF70
0FFFF5000000DFFF60
0DFFF8000002FFFF40
09FFFE100009FFFF10
04FFFFC3017FFFFA00
00BFFFFFFFFFFFF300
002EFFFFFFFFFF7000
0003EFFFFFFFF80000
000018EFFFFB300000
000000024310000000
ENDCHAR
STARTCHAR V
ENCODING 86
SWIDTH 783 0
DWIDTH 19 0
BBX 19 18 0 0
BITMAP
039910000000002A8100
5FFF7000000000BFFE20
9FFFE100000003FFFF50
3FFFF60000000AFFFE10
0BFFFD0000002FFFF800
03FFFF5000009FFFE100
00BFFFC00001EFFF8000
004FFFF40007FFFE1000
000BFFFB000EFFF80000
0004FFFF306FFFE10000
0000BFFFA0DFFF800000
00004FFFF6FFFF100000
00000CFFFFFFF9000000
000004FFFFFFF2000000
000000CFFFFF90000000
0000004FFFFF20000000
0000000CFFF900000000
00000002CEA100000000
ENDCHAR
STARTCHAR W
ENCODING 87
SWIDTH 999 0
DWIDTH 24 0
BBX 24 18 0 0
BITMAP
049910000017810000019940
6FFF700000DFFC000008FFF6
8FFFD00004FFFF30000DFFF8
4FFFF30009FFFF80003FFFF3
0EFFF7000EFFFFD0008FFFD0
09FFFC004FFFFFF300DFFF80
04FFFF209FFFFFF803FFFF30
00DFFF70EFFFFFFD08FFFD00
008FFFC4FFFEFFFF3DFFF700
003FFFFBFFFAAFFFBFFFF200
000DFFFFFFF45FFFFFFFC000
0008FFFFFFE01FFFFFFF7000
0002FFFFFF900AFFFFFF2000
0000CFFFFF4005FFFFFC0000
00007FFFFE0001EFFFF60000
00002FFFF90000AFFFF10000
00000BFFF400005FFFB00000
000002CE70000008EC200000
ENDCHAR
STARTCHAR X
ENCODING 88
SWIDTH 741 0
DWIDTH 18 0
BBX 18 19 0 -1
BITMAP
05EC1000000003DD30
4FFFC10000002EFFE2
8FFFFB000001DFFFF5
2EFFFF90000BFFFFC0
03EFFFF700AFFFFD10
004FFFFF58FFFFE200
0005FFFFFFFFFE3000
00006FFFFFFFF40000
000008FFFFFF500000
000005FFFFFE300000
00004FFFFFFFE20000
0003EFFFFFFFFD1000
002EFFFF8AFFFFC100
01DFFFFA01CFFFFB00
1CFFFFB0001DFFFFA0
7FFFFD100002EFFFF4
6FFFE20000004FFFF3
08FE3000000005FE50
002100000000001100
ENDCHAR
STARTCHAR Y
ENCODING 89
SWIDTH 686 0
DWIDTH 16 0
BBX 17 18 0 0
BITMAP
03BA100000006C7000
4FFF90000003FFFB00
9FFFF400000CFFFF10
2FFFFD00006FFFF900
07FFFF8001EFFFD100
00CFFFF20AFFFF4000
003FFFFB4FFFF90000
0007FFFFEFFFD10000
0000CFFFFFFF400000
00003FFFFFF9000000
000007FFFFD1000000
000000EFFF60000000
000000EFFF60000000
000000EFFF60000000
000000EFFF60000000
000000EFFF60000000
000000DFFF50000000
0000007FFD10000000
ENDCHAR
STARTCHAR Z
ENCODING 90
SWIDTH 643 0
DWIDTH 15 0
BBX 15 19 0 -1
BITMAP
0699999999999400
4FFFFFFFFFFFFF30
6FFFFFFFFFFFFF70
4FFFFFFFFFFFFF30
05888888EFFFF800
00000005FFFFC000
0000002EFFFE2000
000000CFFFF60000
000008FFFFA00000
00004FFFFD100000
0001DFFFF3000000
000AFFFF70000000
006FFFFB00000000
02EFFFE322222100
0CFFFFFFFFFFFF70
5FFFFFFFFFFFFFC0
4FFFFFFFFFFFFFC0
09FFFFFFFFFFFF60
0001111111111000
ENDCHAR
STARTCHAR bracketleft
ENCODING 91
SWIDTH 348 0
DWIDTH 8 0
BBX 8 25 0 -6
BITMAP
03788884
0EFFFFFD
1FFFFFFE
1FFFFED8
1FFFD000
1FFFD000
1FFFD000
1FFFD000
1FFFD000
1FFFD000
1FFFD000
1FFFD000
1FFFD000
1FFFD000
1FFFD000
1FFFD000
1FFFD000
1FFFD000
1FFFD000
1FFFD000
1FFFD000
1FFFFFFA
0FFFFFFE
0DFFFFFD
02666662
ENDCHAR
STARTCHAR backslash
ENCODING 92
SWIDTH 528 0
DWIDTH 13 0
BBX 13 21 0 -2
BITMAP
04A90000000000
6FFF5000000000
8FFFC000000000
2FFFF500000000
09FFFC00000000
02FFFF40000000
00AFFFB0000000
003FFFF3000000
000BFFFA000000
0003FFFF300000
0000BFFFA00000
00004FFFF20000
00000CFFF90000
000005FFFF2000
000000CFFF9000
0000005FFFE100
0000000DFFF800
00000006FFFE10
00000000DFFF40
000000006FFA10
00000000042000
ENDCHAR
STARTCHAR bracketright
ENCODING 93
SWIDTH 348 0
DWIDTH 8 0
BBX 8 25 0 -6
BITMAP
27888860
9FFFFFF4
9FFFFFF6
4DEEFFF6
0008FFF6
0008FFF6
0008FFF6
0008FFF6
0008FFF6
0008FFF6
0008FFF6
0008FFF6
0008FFF6
0008FFF6
0008FFF6
0008FFF6
0008FFF6
0008FFF6
0008FFF6
0008FFF6
0008FFF6
6EFFFFF6
9FFFFFF6
8FFFFFF3
15666640
ENDCHAR
STARTCHAR asciicircum
ENCODING 94
SWIDTH 526 0
DWIDTH 13 0
BBX 11 7 1 6
BITMAP
0001BF600000
001BFFF60000
01BFFFFF6000
1BFFFFFFF600
BFFFC5FFFF50
DFFC104FFF80
3EC10004EB10
ENDCHAR
STARTCHAR underscore
ENCODING 95
SWIDTH 826 0
DWIDTH 20 0
BBX 20 4 0 -6
BITMAP
4CDDDDDDDDDDDDDDDDB2
9FFFFFFFFFFFFFFFFFF6
8FFFFFFFFFFFFFFFFFF6
16777777777777777760
ENDCHAR
STARTCHAR grave
ENCODING 96
SWIDTH 482 0
DWIDTH 12 0
BBX 8 6 2 13
BITMAP
07510000
5FFFB720
AFFFFFF4
5EFFFFF4
0049EFE1
00000320
ENDCHAR
STARTCHAR a
ENCODING 97
SWIDTH 596 0
DWIDTH 14 0
BBX 14 13 0 0
BITMAP
00003896128960
001AFFFFDCFFF3
00CFFFFFFFFFF5
08FFFFFFFFFFF5
1EFFFE9AFFFFF5
4FFFF3006FFFF5
6FFFD0001FFFF5
5FFFE1004FFFF5
2FFFFC56DFFFF5
0BFFFFFFFFFFF5
02EFFFFFFFFFF5
003EFFFFFEFFF5
00019DEC55DEB1
ENDCHAR
STARTCHAR b
ENCODING 98
SWIDTH 592 0
DWIDTH 14 0
BBX 14 19 0 0
BITMAP
03784000000000
0EFFF100000000
1FFFF200000000
1FFFF200000000
1FFFF200000000
1FFFF200000000
1FFFF369850000
1FFFFDFFFFC200
1FFFFFFFFFFD10
1FFFFFFFFFFFB0
1FFFFFCAEFFFF3
1FFFFA002EFFF7
1FFFF4000AFFF9
1FFFF6000CFFF8
1FFFFE64AFFFF5
1FFFFFFFFFFFD0
1FFFFFFFFFFF40
0FFFFFFFFFF600
08EE93BEDA3000
ENDCHAR
STARTCHAR c
ENCODING 99
SWIDTH 517 0
DWIDTH 12 0
BBX 12 14 0 -1
BITMAP
000038BB9500
001AFFFFFFC2
01CFFFFFFFFB
09FFFFFFFFF9
1FFFFFA8EFE1
4FFFF5001620
6FFFF0000000
5FFFF2000000
2FFFFC44AF80
0BFFFFFFFFF6
02EFFFFFFFFB
003EFFFFFFF5
00018DFFE920
000000110000
ENDCHAR
STARTCHAR d
ENCODING 100
SWIDTH 598 0
DWIDTH 14 0
BBX 14 19 0 0
BITMAP
00000000027850
000000000AFFF4
000000000CFFF6
000000000CFFF6
000000000CFFF6
000000000CFFF6
000037971CFFF6
0009FFFFEEFFF6
00AFFFFFFFFFF6
06FFFFFFFFFFF6
0DFFFFAAFFFFF6
2FFFF5005FFFF6
4FFFF0000EFFF6
3FFFF2002FFFF6
1EFFFD55CFFFF6
09FFFFFFFFFFF6
01DFFFFFFFFFF6
002DFFFFFFFFF5
00018DEC65DEB1
ENDCHAR
STARTCHAR e
ENCODING 101
SWIDTH 573 0
DWIDTH 14 0
BBX 14 14 0 -1
BITMAP
00005ACDC93000
002CFFFFFFF700
01DFFFFFFFFF50
0AFFFFFEFFFFC0
1FFFFC204FFFF1
4FFFF4224FFFF2
6FFFFFFFFFFFD0
5FFFFFFFFFFD40
2FFFF511111000
0CFFFE9669EB00
04FFFFFFFFFF60
007FFFFFFFFF70
0004CFFFFFF910
00000135431000
ENDCHAR
STARTCHAR f
ENCODING 102
SWIDTH 450 0
DWIDTH 11 0
BBX 11 19 0 0
BITMAP
000003798200
00009FFFFA00
0008FFFFFC00
002FFFFFFA00
005FFFFA8200
007FFFC00000
06BFFFD89600
7FFFFFFFFF50
9FFFFFFFFF60
7FFFFFFFFF40
17BFFFE89600
007FFFC00000
007FFFC00000
007FFFC00000
007FFFC00000
007FFFC00000
007FFFC00000
006FFFB00000
002CFE500000
ENDCHAR
STARTCHAR g
ENCODING 103
SWIDTH 585 0
DWIDTH 14 0
BBX 14 19 0 -6
BITMAP
0000489604AA50
001BFFFFCEFFF0
01DFFFFFFFFFF1
09FFFFFFFFFFF1
1FFFFD89FFFFF1
5FFFE1007FFFF1
6FFFB0003FFFF1
5FFFE2008FFFF1
1FFFFD8AFFFFF1
09FFFFFFFFFFF1
01DFFFFFFFFFF1
001BFFFFCFFFF1
000048962FFFF1
001740006FFFE0
00BFFB79FFFFA0
03FFFFFFFFFF30
02EFFFFFFFF600
0019EFFFFC4000
00001466300000
ENDCHAR
STARTCHAR h
ENCODING 104
SWIDTH 605 0
DWIDTH 15 0
BBX 14 19 0 0
BITMAP
03784000000000
0EFFF100000000
1FFFF200000000
1FFFF200000000
1FFFF200000000
1FFFF200000000
1FFFF238851000
1FFFF9FFFFD400
1FFFFFFFFFFE30
1FFFFFFFFFFFC0
1FFFFFC9DFFFF3
1FFFF8001EFFF7
1FFFF3000AFFF8
1FFFF2000AFFF8
1FFFF2000AFFF8
1FFFF2000AFFF8
1FFFF2000AFFF8
0FFFF20009FFF8
09EFA00004DFD3
ENDCHAR
STARTCHAR i
ENCODING 105
SWIDTH 255 0
DWIDTH 6 0
BBX 6 19 0 0
BITMAP
037840
0EFFF1
1FFFF2
0EFFF1
049950
000000
049940
0EFFF1
1FFFF2
1FFFF2
1FFFF2
1FFFF2
1FFFF2
1FFFF2
1FFFF2
1FFFF2
1FFFF2
0FFFF2
09EFA0
ENDCHAR
STARTCHAR j
ENCODING 106
SWIDTH 252 0
DWIDTH 6 0
BBX 10 25 -4 -6
BITMAP
0000037730
00000EFFE0
00001FFFF1
00000EFFE0
0000038840
0000000000
000005AA50
00000EFFF0
00001FFFF1
00001FFFF1
00001FFFF1
00001FFFF1
00001FFFF1
00001FFFF1
00001FFFF1
00001FFFF1
00001FFFF1
00001FFFF1
00002FFFF1
00007FFFE0
06ADFFFFA0
1FFFFFFF30
2FFFFFF600
1EFFFC3000
0366300000
ENDCHAR
STARTCHAR k
ENCODING 107
SWIDTH 536 0
DWIDTH 13 0
BBX 13 20 0 -1
BITMAP
03884000000000
0EFFF100000000
1FFFF200000000
1FFFF200000000
1FFFF200000000
1FFFF200000000
1FFFF200010000
1FFFF202BF8000
1FFFF23EFFF500
1FFFF6EFFFF800
1FFFFFFFFFC100
1FFFFFFFFB1000
1FFFFFFFB00000
1FFFFFFFF70000
1FFFFFFFFF9000
1FFFF8FFFFFB10
1FFFF25FFFFF60
0FFFF204EFFF30
09EFA0003CF600
00000000001000
ENDCHAR
STARTCHAR l
ENCODING 108
SWIDTH 327 0
DWIDTH 8 0
BBX 8 19 0 0
BITMAP
03884000
0EFFF100
1FFFF200
1FFFF200
1FFFF200
1FFFF200
1FFFF200
1FFFF200
1FFFF200
1FFFF200
1FFFF200
1FFFF200
1FFFF200
1FFFF200
0FFFF400
0EFFFFE3
0CFFFFF7
07FFFFF7
007CEFE3
ENDCHAR
STARTCHAR m
ENCODING 109
SWIDTH 851 0
DWIDTH 20 0
BBX 20 13 0 0
BITMAP
03994049950004995000
0EFFF7FFFFA1AFFFFC10
1FFFFFFFFFFDFFFFFF90
1FFFFFFFFFFFFFFFFFF1
1FFFFEADFFFFFACFFFF4
1FFFF602FFFF800EFFF6
1FFFF300EFFF500BFFF7
1FFFF300DFFF500BFFF7
1FFFF300DFFF500BFFF7
1FFFF300DFFF500BFFF7
1FFFF300DFFF500BFFF7
0FFFF200DFFF500BFFF6
09EFA0006EFC1005EFD2
ENDCHAR
STARTCHAR n
ENCODING 110
SWIDTH 606 0
DWIDTH 15 0
BBX 14 13 0 0
BITMAP
04995049961000
0EFFF8FFFFE400
1FFFFFFFFFFF30
1FFFFFFFFFFFC0
1FFFFFB9DFFFF4
1FFFF8001EFFF7
1FFFF3000AFFF8
1FFFF2000AFFF9
1FFFF2000AFFF9
1FFFF2000AFFF9
1FFFF2000AFFF9
0FFFF20009FFF8
08EE900003DED3
ENDCHAR
STARTCHAR o
ENCODING 111
SWIDTH 600 0
DWIDTH 14 0
BBX 14 14 0 -1
BITMAP
00005ADEC81000
001BFFFFFFE500
01CFFFFFFFFF50
09FFFFFFFFFFE1
1FFFFE75BFFFF7
4FFFF3000BFFFA
6FFFD00008FFFC
5FFFF1000AFFFB
2FFFFB217FFFF8
0BFFFFFFFFFFF2
02EFFFFFFFFF80
003EFFFFFFF900
00019EFFFB5000
00000023100000
ENDCHAR
STARTCHAR p
ENCODING 112
SWIDTH 582 0
DWIDTH 14 0
BBX 14 19 0 -6
BITMAP
04994069840000
0EFFECFFFFB100
1FFFFFFFFFFC00
1FFFFFFFFFFF80
1FFFFFA8EFFFE1
1FFFF7002EFFF4
1FFFF3000CFFF5
1FFFF7001EFFF4
1FFFFF97DFFFF1
1FFFFFFFFFFF90
1FFFFFFFFFFC10
1FFFFDFFFFB100
1FFFF279950000
1FFFF100000000
1FFFF100000000
1FFFF100000000
1FFFF100000000
0EFFE000000000
02672000000000
ENDCHAR
STARTCHAR q
ENCODING 113
SWIDTH 582 0
DWIDTH 14 0
BBX 13 19 0 -6
BITMAP
00004896049940
001BFFFFCFFFE0
01CFFFFFFFFFF0
09FFFFFFFFFFF0
1FFFFD8AFFFFF0
4FFFE2008FFFF0
6FFFB0004FFFF0
5FFFE1007FFFF0
1FFFFD79FFFFF0
09FFFFFFFFFFF0
01DFFFFFFFFFF0
001CFFFFDFFFF0
000059972FFFF0
000000001FFFF0
000000001FFFF0
000000001FFFF0
000000001FFFF0
000000000EFFD0
00000000027620
ENDCHAR
STARTCHAR r
ENCODING 114
SWIDTH 457 0
DWIDTH 11 0
BBX 11 13 0 0
BITMAP
0499505BB700
0EFFFBFFFF80
1FFFFFFFFF80
1FFFFFFFFF40
1FFFFE669600
1FFFF4000000
1FFFF3000000
1FFFF3000000
1FFFF3000000
1FFFF3000000
1FFFF3000000
0FFFF2000000
08EFA0000000
ENDCHAR
STARTCHAR s
ENCODING 115
SWIDTH 489 0
DWIDTH 12 0
BBX 12 14 0 -1
BITMAP
0017BDDB8200
03EFFFFFFF50
0BFFFFFFFF60
0EFFE77AEC10
0EFFE5101000
0BFFFFFD9300
04FFFFFFFF50
005DFFFFFFD0
014148BFFFF1
0BFE834DFFF1
4FFFFFFFFFE0
3FFFFFFFFF60
029EFFFFB500
000023210000
ENDCHAR
STARTCHAR t
ENCODING 116
SWIDTH 449 0
DWIDTH 11 0
BBX 11 17 0 0
BITMAP
002CED400000
006FFFB00000
007FFFB00000
007FFFB00000
18BFFFD89600
8FFFFFFFFF40
9FFFFFFFFF60
8FFFFFFFFF40
18BFFFD89600
007FFFB00000
007FFFB00000
007FFFB00000
006FFFD00000
005FFFFFE500
001EFFFFFB00
0007FFFFFB00
00004BEFE500
ENDCHAR
STARTCHAR u
ENCODING 117
SWIDTH 606 0
DWIDTH 15 0
BBX 14 13 0 0
BITMAP
049A5000018A81
0EFFF10008FFF7
1FFFF30009FFF9
1FFFF30009FFF9
1FFFF30009FFF9
1FFFF30009FFF9
1FFFF30009FFF9
0FFFF6000CFFF9
0CFFFE65AFFFF9
07FFFFFFFFFFF9
01DFFFFFFFFFF9
002DFFFFFCFFF8
00018CEC43DED3
ENDCHAR
STARTCHAR v
ENCODING 118
SWIDTH 638 0
DWIDTH 15 0
BBX 15 14 0 -1
BITMAP
04BB10000007C700
5FFF8000004FFFA0
9FFFF20000CFFFD0
3FFFF90004FFFF70
09FFFF200CFFFD10
01EFFFA05FFFF500
007FFFF3DFFFB000
000DFFFDFFFF3000
0004FFFFFFF90000
0000AFFFFFE10000
00002FFFFF600000
000008FFFC000000
000001BFD3000000
0000000100000000
ENDCHAR
STARTCHAR w
ENCODING 119
SWIDTH 793 0
DWIDTH 19 0
BBX 19 13 0 0
BITMAP
05BA100059500009B500
7FFF7004FFF5006FFF70
8FFFD00BFFFC00CFFF90
3FFFF42FFFFF23FFFF40
0CFFF97FFFFF88FFFD00
06FFFEDFFFFFDEFFF600
00EFFFFFFFFFFFFFE100
008FFFFFFEFFFFFF9000
002FFFFFF5FFFFFF3000
000BFFFFC0CFFFFC0000
0005FFFF706FFFF60000
0000DFFF101EFFE10000
00004EF60005EE500000
ENDCHAR
STARTCHAR x
ENCODING 120
SWIDTH 567 0
DWIDTH 14 0
BBX 14 14 0 -1
BITMAP
03B7000002A910
3EFF90002DFFB0
8FFFF902DFFFF3
3EFFFF9DFFFFB0
04FFFFFFFFFC10
004FFFFFFFC100
0006FFFFFE1000
001DFFFFFF8000
01DFFFFFFFF800
1CFFFFDFFFFF70
8FFFFD15FFFFF2
5FFFD1005FFFE1
07FC100005ED30
00100000001000
ENDCHAR
STARTCHAR y
ENCODING 121
SWIDTH 604 0
DWIDTH 15 0
BBX 15 19 0 -6
BITMAP
05CB1000006C9200
6FFF900001EFFE10
8FFFF30007FFFF10
1EFFFB000EFFF900
07FFFF506FFFF300
00CFFFE1CFFFB000
004FFFFBFFFF4000
000AFFFFFFFD0000
0002EFFFFFF60000
00007FFFFFE00000
00000DFFFF800000
000008FFFF100000
00000EFFF9000000
00006FFFF2000000
0000DFFFB0000000
0004FFFF40000000
0009FFFC00000000
0006FFF600000000
0000387000000000
ENDCHAR
STARTCHAR z
ENCODING 122
SWIDTH 586 0
DWIDTH 14 0
BBX 14 13 0 0
BITMAP
039AAAAAAAA820
0BFFFFFFFFFFD0
0DFFFFFFFFFFF2
0BFFFFFFFFFFC0
027888CFFFFD20
000007FFFFC100
00008FFFFB1000
000AFFFFA00000
01BFFFFB333310
0CFFFFFFFFFFF3
5FFFFFFFFFFFF7
4FFFFFFFFFFFF6
08EFFFFFFFFFD2
ENDCHAR
STARTCHAR braceleft
ENCODING 123
SWIDTH 381 0
DWIDTH 9 0
BBX 9 25 0 -6
BITMAP
0000037820
00009FFFA0
0005FFFFB0
000BFFFD50
000DFFA000
000DFF9000
000DFF9000
000DFF9000
000EFF9000
000EFF8000
048FFF5000
7FFFFD0000
9FFFF60000
6FFFFE1000
026FFF5000
000EFF7000
000DFF8000
000DFF8000
000DFF8000
000DFF8000
000DFFA000
000AFFFF60
0004FFFFB0
00007FFFA0
0000025610
ENDCHAR
STARTCHAR bar
ENCODING 124
SWIDTH 217 0
DWIDTH 5 0
BBX 5 25 0 -6
BITMAP
048500
0EFF20
1FFF40
1FFF40
1FFF40
1FFF40
1FFF40
1FFF40
1FFF40
1FFF40
1FFF40
1FFF40
1FFF40
1FFF40
1FFF40
1FFF40
1FFF40
1FFF40
1FFF40
1FFF40
1FFF40
1FFF40
1FFF40
0EFF20
048500
ENDCHAR
STARTCHAR braceright
ENCODING 125
SWIDTH 381 0
DWIDTH 9 0
BBX 9 25 0 -6
BITMAP
1784000000
8FFFA00000
9FFFF70000
4DFFFD0000
007FFF0000
007FFF0000
007FFF0000
007FFF0000
007FFF0000
006FFF1000
003FFF9410
000BFFFFA0
0004FFFFB0
000DFFFF90
003FFF7300
006FFF0000
007FFF0000
007FFF0000
007FFF0000
007FFF0000
008FFF0000
5EFFFC0000
9FFFF60000
8FFF800000
1562000000
ENDCHAR
STARTCHAR asciitilde
ENCODING 126
SWIDTH 651 0
DWIDTH 16 0
BBX 13 7 1 3
BITMAP
00001000000000
007DFEA108FA10
0BFFFFFEAFFFA0
8FFFFFFFFFFF70
BFFFBFFFFFFC10
2CF802BFFE9100
00200002200000
ENDCHAR
STARTCHAR exclamdown
ENCODING 161
SWIDTH 268 0
DWIDTH 6 0
BBX 5 19 1 -6
BITMAP
023100
AFFE20
FFFF60
FFFF70
AFFE30
033100
000000
6CDB10
EFFF50
EFFF50
EFFF50
EFFF50
EFFF50
EFFF50
EFFF50
EFFF50
EFFF50
CFFF30
267400
ENDCHAR
STARTCHAR cent
ENCODING 162
SWIDTH 434 0
DWIDTH 10 0
BBX 10 18 0 -2
BITMAP
00004ED100
00008FF300
00008FF400
00008FF400
0018EFFD70
01CFFFFFF9
0BFFFFFFFA
2FFFE77ED2
5FFF500010
6FFF300000
3FFFC33A80
0DFFFFFFF8
03EFFFFFFB
003CFFFFB2
00009FF500
00008FF400
00008FF300
00004DC100
ENDCHAR
STARTCHAR sterling
ENCODING 163
SWIDTH 675 0
DWIDTH 16 0
BBX 16 18 0 0
BITMAP
0000001689861000
000019FFFFFFF910
0001CFFFFFFFFFC0
0008FFFFFFFFFFF5
001EFFFB646CFFF2
004FFFD000008A40
006FFF7000000000
029FFF8332000000
7FFFFFFFFF300000
9FFFFFFFFF600000
5EFFFFFFFE200000
000AFFF500000000
0008FFF600000000
000CFFF400000000
005FFFFEEEEEEED5
00EFFFFFFFFFFFFC
00FFFFFFFFFFFFFC
007EFFFFFFFFFFE6
ENDCHAR
STARTCHAR currency
ENCODING 164
SWIDTH 677 0
DWIDTH 16 0
BBX 16 19 0 0
BITMAP
0272000000000630
2EFC000000008FF5
3FFFA5433348FFF8
0BFFFFFFFFFFFFE1
02DFFFFFFFFFFE40
00CFFFFFFFFFFE10
04FFFF9557EFFF80
09FFF400001EFFD0
0CFFD0000009FFF1
0DFFB0000007FFF2
0DFFC0000007FFF1
0BFFF200000BFFE0
07FFFC20018FFFB0
01EFFFFEEFFFFF40
00AFFFFFFFFFFE10
07FFFFFFFFFFFFA0
2FFFEB9889ADFFF5
4FFE20000000CFF8
06C5000000002C80
ENDCHAR
STARTCHAR yen
ENCODING 165
SWIDTH 677 0
DWIDTH 16 0
BBX 16 18 0 0
BITMAP
0187000000005930
3EFF70000003FFF6
9FFFF200000CFFFC
3FFFFB00007FFFF7
09FFFF5002EFFFC0
01DFFFE10BFFFF30
004FFFF95FFFF700
0008FFFFEFFFC000
0001DFFFFFFF3000
0018CFFFFFFE9300
006FFFFFFFFFFA00
002DEEFFFFEED600
000000FFFF400000
000677FFFF977200
006FFFFFFFFFFA00
003EFFFFFFFFF800
000011EFFF411000
0000007EEA000000
ENDCHAR
STARTCHAR brokenbar
ENCODING 166
SWIDTH 215 0
DWIDTH 5 0
BBX 5 25 0 -6
BITMAP
048500
0EFF20
1FFF30
1FFF30
1FFF30
1FFF30
1FFF30
1FFF30
1FFF30
1FFF30
0DFE10
014200
000000
048500
0EFF20
1FFF30
1FFF30
1FFF30
1FFF30
1FFF30
1FFF30
1FFF30
0FFF30
0DFE10
025200
ENDCHAR
STARTCHAR section
ENCODING 167
SWIDTH 560 0
DWIDTH 13 0
BBX 13 25 0 -6
BITMAP
00002565300000
001BFFFFFD6000
01DFFFFFFFF700
09FFFFFFFFFC00
0EFFFA68EFF400
1FFFF000284000
0FFFF600000000
0CFFFFDA620000
04FFFFFFFFB200
05FFFFFFFFFE10
0CFFFFEFFFFF80
1FFFF304CFFFB0
1FFFF1005FFFC0
0EFFFC62AFFFB0
08FFFFFFFFFF60
01CFFFFFFFFE00
0006DFFFFFFF50
0000037BFFFFA0
018500006FFFC0
1CFF80006FFFC0
5FFFFB67EFFF90
1EFFFFFFFFFF30
04EFFFFFFFF700
002AFFFFFC4000
00002465200000
ENDCHAR
STARTCHAR dieresis
ENCODING 168
SWIDTH 489 0
DWIDTH 12 0
BBX 11 5 1 14
BITMAP
388400068710
DFFF207FFF90
FFFF408FFFB0
EFFF207FFFA0
4AA70019B920
ENDCHAR
STARTCHAR copyright
ENCODING 169
SWIDTH 711 0
DWIDTH 17 0
BBX 17 16 0 2
BITMAP
000038BDEDC9400000
001AFFFFFFFFFB1000
01CFE9532248EFC100
08FE2049B9502DF800
0EF508FFFFFA04FE00
3FE05FFFCEFA00EF30
5FC0CFE2005100BF60
6FB0FF90000000AF70
5FB0EF90000000AF60
4FC0BFF5028200BF50
1FF13FFFEFFB00EF20
0CF605EFFFF806FD00
05FE501687304EF600
009FFC86568BFFA000
0008EFFFFFFFE80000
0000158AAA95100000
ENDCHAR
STARTCHAR ordfeminine
ENCODING 170
SWIDTH 445 0
DWIDTH 11 0
BBX 10 10 0 8
BITMAP
0000100110
005DFE8EF8
05FFFFFFFB
1EFFFEFFFB
4FFD10BFFB
6FFA007FFB
4FFE43DFFB
0DFFFFFFFB
03EFFFFFFB
002ADB5CD6
ENDCHAR
STARTCHAR guillemotleft
ENCODING 171
SWIDTH 668 0
DWIDTH 16 0
BBX 16 13 0 0
BITMAP
0000027100001720
00003EFD1001CFE3
0003EFFF601DFFF9
003EFFFC11DFFFE3
03EFFFC12DFFFE30
2EFFFC11DFFFE300
9FFFE106FFFF3000
5FFFF703FFFFA000
08FFFF706FFFFA00
008FFFF706FFFFA0
0008FFFF506FFFF7
00008FFF4005FFF6
000007D600005D80
ENDCHAR
STARTCHAR logicalnot
ENCODING 172
SWIDTH 526 0
DWIDTH 13 0
BBX 13 8 0 3
BITMAP
17888888888600
8FFFFFFFFFFF30
9FFFFFFFFFFF40
8FFFFFFFFFFF40
178888888FFF40
000000000FFF40
000000000EFF40
0000000009FC10
ENDCHAR
STARTCHAR registered
ENCODING 174
SWIDTH 711 0
DWIDTH 17 0
BBX 17 16 0 2
BITMAP
000038BDEDC9400000
001AFFFFFFFFFB1000
01CFE9532248EFC100
08FE25CCCB602DF800
0EF509FFFFFA04FE00
3FE009FE9DFF30EF30
5FC009FC03FF50BF60
6FB009FE9CFF20AF70
5FB009FFFFFA00AF60
4FC009FFDEFB00BF50
1FF109FC07FF31EF20
0CF608FB01EF57FD00
05FE514100345FF600
009FFC86568CFFA000
0008EFFFFFFFE80000
0000158AAA95100000
ENDCHAR
STARTCHAR degree
ENCODING 176
SWIDTH 407 0
DWIDTH 10 0
BBX 10 10 0 9
BITMAP
0003662000
01AFFFF700
0AFFFFFF70
2FFE78FFE0
5FF700AFF2
5FF800BFF2
2FFFABFFD0
08FFFFFF50
007EFFD400
0000320000
ENDCHAR
STARTCHAR plusminus
ENCODING 177
SWIDTH 505 0
DWIDTH 12 0
BBX 12 13 0 0
BITMAP
00006EF70000
0000BFFD0000
0356DFFE6640
4FFFFFFFFFF6
6FFFFFFFFFF7
3FFFFFFFFFF5
0234CFFE4420
0000AFFC0000
00003AB40000
014444444420
0DFFFFFFFFE1
0FFFFFFFFFF2
0AEFFFFFFEC0
ENDCHAR
STARTCHAR twosuperior
ENCODING 178
SWIDTH 455 0
DWIDTH 11 0
BBX 11 13 0 5
BITMAP
002AEFD81000
03EFFFFFC100
0CFFFFFFF800
3FFFC8EFFE00
6FFF307FFF10
4FFE10CFFF00
05631AFFFA00
0007EFFFE200
02CFFFFD3000
0DFFFFFBA920
4FFFFFFFFF80
4FFFFFFFFF80
07CCCCCCCB30
ENDCHAR
STARTCHAR threesuperior
ENCODING 179
SWIDTH 457 0
DWIDTH 11 0
BBX 11 13 0 5
BITMAP
0019EFEA2000
01DFFFFFE300
0AFFFFFFFC00
0CFFA4BFFF10
03CD107FFF10
00007CFFF900
0000DFFFF600
03527BEFFF20
4FFE103FFF50
5FFF939FFF40
0EFFFFFFFD00
04EFFFFFE400
003AEFEA3000
ENDCHAR
STARTCHAR acute
ENCODING 180
SWIDTH 605 0
DWIDTH 15 0
BBX 8 6 3 13
BITMAP
00001670
027BFFF5
3FFFFFF9
4FFFFFE5
0EFE9400
02300000
ENDCHAR
STARTCHAR mu
ENCODING 181
SWIDTH 601 0
DWIDTH 14 0
BBX 14 19 0 -6
BITMAP
04995000029A80
0EFFF10009FFF5
1FFFF2000BFFF7
1FFFF2000BFFF7
1FFFF2000BFFF7
1FFFF2000BFFF7
1FFFF2000BFFF7
1FFFF5001EFFF7
1FFFFE76BFFFF7
1FFFFFFFFFFFF7
1FFFFFFFFFFFF7
1FFFFFFFFCFFF6
1FFFF8CB43BCA1
1FFFF200000000
1FFFF200000000
1FFFF200000000
1FFFF200000000
0CFFD000000000
01441000000000
ENDCHAR
STARTCHAR paragraph
ENCODING 182
SWIDTH 614 0
DWIDTH 15 0
BBX 14 21 0 -6
BITMAP
0069ABBBBBBB80
0AFFFFFFFFFFF4
2FFFFFFFCBFFF5
4FFFFFFF40EFF5
4FFFFFFF40EFF5
3FFFFFFF40EFF5
1EFFFFFF40EFF5
07FFFFFF40EFF5
0048AFFF40EFF5
00000FFF40EFF5
00000FFF40EFF5
00000FFF40EFF5
00000FFF40EFF5
00000FFF40EFF5
00000FFF40EFF5
00000FFF40EFF5
00000FFF40EFF5
00000FFF40EFF5
00000FFF40EFF5
00000EFF20DFF3
00000386003860
ENDCHAR
STARTCHAR periodcentered
ENCODING 183
SWIDTH 237 0
DWIDTH 6 0
BBX 6 5 0 5
BITMAP
069830
4FFFE0
6FFFF1
4FFFF1
09CC60
ENDCHAR
STARTCHAR cedilla
ENCODING 184
SWIDTH 559 0
DWIDTH 13 0
BBX 5 6 4 -5
BITMAP
29A500
AFFF70
399FC0
4BAFC0
AFFF50
178400
ENDCHAR
STARTCHAR onesuperior
ENCODING 185
SWIDTH 321 0
DWIDTH 8 0
BBX 7 13 0 5
BITMAP
0002BC40
004EFFB0
05FFFFB0
4FFFFFB0
9FFFFFB0
2DFFFFB0
001CFFB0
000CFFB0
000CFFB0
000CFFB0
000CFFB0
000BFFB0
0005BB40
ENDCHAR
STARTCHAR ordmasculine
ENCODING 186
SWIDTH 439 0
DWIDTH 11 0
BBX 10 10 0 7
BITMAP
0029EFC600
03EFFFFFA0
0DFFFFFFF6
4FFE418FFC
6FFA002FFE
5FFD106FFD
1EFFECFFF9
06FFFFFFD1
005DFFFA10
0000341000
ENDCHAR
STARTCHAR guillemotright
ENCODING 187
SWIDTH 669 0
DWIDTH 16 0
BBX 16 13 0 0
BITMAP
0271000017200000
2EFD2001DFE30000
8FFFD205FFFE3000
3EFFFD21CFFFE300
02DFFFD21CFFFE30
002DFFFD11CFFFE2
0002FFFF601DFFF9
0009FFFF306FFFF6
009FFFF607FFFF90
09FFFF607FFFF900
7FFFF604FFFF9000
6FFF6003FFF90000
07D500005D700000
ENDCHAR
STARTCHAR onequarter
ENCODING 188
SWIDTH 786 0
DWIDTH 19 0
BBX 17 20 1 -1
BITMAP
000540000007910000
00AFF300002FF30000
1BFFF40000AFA00000
AFFFF40003FF300000
8FFFF4000BFA000000
049FF4004FF2000000
008FF400CF90000000
008FF405FE10000000
008FF40CF801000000
008FF36FE1AF93FF40
002871DF71FFC5FF60
000006FD14FF95FF60
00001EF608FF55FF60
00007FD00BFF8AFF60
0001EF500EFFFFFF60
0008FC000DFFFFFF60
002FF400013337FF60
009FB000000005FF60
01FF3000000002DD30
007800000000000000
ENDCHAR
STARTCHAR onehalf
ENCODING 189
SWIDTH 804 0
DWIDTH 19 0
BBX 17 20 1 -1
BITMAP
000540000007910000
00AFF300002FF30000
1BFFF40000AFA00000
AFFFF40003FF300000
8FFFF4000BFA000000
049FF4004FF2000000
008FF400CF90000000
008FF405FE10000000
008FF40CF800210000
008FF36FE16EFFB100
002871DF75FFFFFC00
000006FD1DFFADFF40
00001EF60FFC06FF70
00007FD00BE71CFF50
0001EF500005DFFD00
0008FC0001BFFFD200
002FF4000BFFFFCC60
009FB0000FFFFFFFD0
01FF300009EFFFFF90
007800000000000000
ENDCHAR
STARTCHAR threequarters
ENCODING 190
SWIDTH 842 0
DWIDTH 20 0
BBX 18 20 1 -1
BITMAP
0025620000003B3000
06EFFF900000CF8000
3FFFFFF60005FE1000
4FF65FFA000DF80000
04637FF8006FE10000
000FFFF200DF700000
2529BFFA07FD000000
BFE00DFD1EF6000000
9FFCCFFB8FD0100010
2EFFFFE4EF55FD1DF8
029CC928FC0AFF2FFB
0000002FF40EFE0FFC
0000009FB03FFA0FFC
000002FF306FFB7FFC
00000AFA009FFFFFFC
00003FF3008FFFFFFC
0000BF900003333FFC
0004FF200000000FFB
000BF9000000000AE7
0004A1000000000000
ENDCHAR
STARTCHAR questiondown
ENCODING 191
SWIDTH 511 0
DWIDTH 12 0
BBX 12 19 0 -6
BITMAP
00004AA70000
0000DFFF5000
0000FFFF7000
0000DFFF6000
00004BB90000
000000000000
000015620000
0000AFFE0000
0018EFFF1000
02DFFFFD0000
0BFFFFD30000
3FFFE5000000
6FFF70007D92
5FFF8001EFFC
2FFFF98DFFFB
0AFFFFFFFFF4
01DFFFFFFF80
001AFFFFE600
000014530000
ENDCHAR
STARTCHAR Agrave
ENCODING 192
SWIDTH 765 0
DWIDTH 18 0
BBX 18 24 0 -1
BITMAP
000006FB7200000000
00000CFFFFD7000000
00000EFFFFFF000000
0000039DFFFC000000
0000000038C5000000
000000007820000000
0000000AFFE1000000
0000003FFFF8000000
000000AFFFFE100000
000002FFFFFF700000
000009FFFFFFE10000
00002FFFFFFFF70000
00009FFFFDFFFE0000
0002FFFFA5FFFF6000
0008FFFF20CFFFD000
001EFFFC449FFFF600
008FFFFFFFFFFFFD00
01EFFFFFFFFFFFFF50
07FFFFFFFFFFFFFFD0
1EFFFB4444447FFFF5
6FFFF40000000DFFFC
8FFFC000000006FFFE
1AFF4000000000DFD4
002100000000001300
ENDCHAR
STARTCHAR Aacute
ENCODING 193
SWIDTH 765 0
DWIDTH 18 0
BBX 18 25 0 -1
BITMAP
000000000003300000
0000000159EFE10000
0000005EFFFFF50000
0000008FFFFFF40000
0000004FFFB6100000
000000065100000000
000000007820000000
0000000AFFE1000000
0000003FFFF8000000
000000AFFFFE100000
000002FFFFFF700000
000009FFFFFFE10000
00002FFFFFFFF70000
00009FFFFDFFFE0000
0002FFFFA5FFFF6000
0008FFFF20CFFFD000
001EFFFC449FFFF600
008FFFFFFFFFFFFD00
01EFFFFFFFFFFFFF50
07FFFFFFFFFFFFFFD0
1EFFFB4444447FFFF5
6FFFF40000000DFFFC
8FFFC000000006FFFE
1AFF4000000000DFD4
002100000000001300
ENDCHAR
STARTCHAR Acircumflex
ENCODING 194
SWIDTH 765 0
DWIDTH 18 0
BBX 18 25 0 -1
BITMAP
000000003410000000
0000038DFFFA500000
00006FFFFFFFFC0000
00007FFFFFFFFD0000
00001DFC539EF50000
000000100001200000
000000007820000000
0000000AFFE1000000
0000003FFFF8000000
000000AFFFFE100000
000002FFFFFF700000
000009FFFFFFE10000
00002FFFFFFFF70000
00009FFFFDFFFE0000
0002FFFFA5FFFF6000
0008FFFF20CFFFD000
001EFFFC449FFFF600
008FFFFFFFFFFFFD00
01EFFFFFFFFFFFFF50
07FFFFFFFFFFFFFFD0
1EFFFB4444447FFFF5
6FFFF40000000DFFFC
8FFFC000000006FFFE
1AFF4000000000DFD4
002100000000001300
ENDCHAR
STARTCHAR Atilde
ENCODING 195
SWIDTH 765 0
DWIDTH 18 0
BBX 18 25 0 -1
BITMAP
000000254001400000
000006FFFC4CF90000
00004FFFFFFFFD0000
00008FFDFFFFF50000
00001BB03BEC500000
000000000000000000
000000007820000000
0000000AFFE1000000
0000003FFFF8000000
000000AFFFFE100000
000002FFFFFF700000
000009FFFFFFE10000
00002FFFFFFFF70000
00009FFFFDFFFE0000
0002FFFFA5FFFF6000
0008FFFF20CFFFD000
001EFFFC449FFFF600
008FFFFFFFFFFFFD00
01EFFFFFFFFFFFFF50
07FFFFFFFFFFFFFFD0
1EFFFB4444447FFFF5
6FFFF40000000DFFFC
8FFFC000000006FFFE
1AFF4000000000DFD4
002100000000001300
ENDCHAR
STARTCHAR Adieresis
ENCODING 196
SWIDTH 765 0
DWIDTH 18 0
BBX 18 25 0 -1
BITMAP
000015510004540000
0000EFFE007FFF6000
0002FFFF20AFFF9000
0001FFFF209FFF9000
00009DD9003CEC3000
000000000000000000
000000007820000000
0000000AFFE1000000
0000003FFFF8000000
000000AFFFFE100000
000002FFFFFF700000
000009FFFFFFE10000
00002FFFFFFFF70000
00009FFFFDFFFE0000
0002FFFFA5FFFF6000
0008FFFF20CFFFD000
001EFFFC449FFFF600
008FFFFFFFFFFFFD00
01EFFFFFFFFFFFFF50
07FFFFFFFFFFFFFFD0
1EFFFB4444447FFFF5
6FFFF40000000DFFFC
8FFFC000000006FFFE
1AFF4000000000DFD4
002100000000001300
ENDCHAR
STARTCHAR Aring
ENCODING 197
SWIDTH 765 0
DWIDTH 18 0
BBX 18 23 0 -1
BITMAP
00000007EFB2000000
0000007FCAFC000000
000000CD008F200000
000000DC007F300000
0000008FB9FD000000
0000000DFFF4000000
0000003FFFF8000000
000000AFFFFE100000
000002FFFFFF700000
000009FFFFFFE10000
00002FFFFFFFF70000
00009FFFFDFFFE0000
0001FFFFA5FFFF6000
0008FFFF20CFFFD000
001EFFFC449FFFF600
008FFFFFFFFFFFFD00
01EFFFFFFFFFFFFF50
07FFFFFFFFFFFFFFD0
1EFFFB4444447FFFF5
6FFFF40000000DFFFC
8FFFC000000006FFFE
1AFF4000000000DFD4
002100000000001300
ENDCHAR
STARTCHAR AE
ENCODING 198
SWIDTH 1148 0
DWIDTH 28 0
BBX 27 19 0 -1
BITMAP
0000000000000599999999999930
0000000000008FFFFFFFFFFFFFC0
000000000007FFFFFFFFFFFFFFE0
00000000005FFFFFFFFFFFFFFFD0
0000000004FFFFFFFC9999999930
000000003EFFFFFFF80000000000
00000002EFFFFFFFF80000000000
0000001DFFFFBCFFFFEEEEEA0000
000001CFFFFC1BFFFFFFFFFF4000
00000BFFFFD10BFFFFFFFFFF4000
0000AFFFFE422CFFFFFFFFFE2000
0009FFFFFFFFFFFFFA4444420000
008FFFFFFFFFFFFFF80000000000
06FFFFFFFFFFFFFFFA4444444300
5FFFFF8666666DFFFFFFFFFFFFA0
DFFFF70000000BFFFFFFFFFFFFE0
BFFF8000000009FFFFFFFFFFFFD0
2DF90000000001BEFFFFFFFFFE70
0020000000000000000000000000
ENDCHAR
STARTCHAR Ccedilla
ENCODING 199
SWIDTH 679 0
DWIDTH 16 0
BBX 16 23 0 -5
BITMAP
00000037BCB94000
00003BFFFFFFFD50
0006FFFFFFFFFFF6
007FFFFFFFFFFFF9
03FFFFFE979DFFF3
0AFFFF9100006B50
1FFFFA0000000000
4FFFF20000000000
5FFFE00000000000
6FFFD00000000000
4FFFF10000000000
1FFFF60000000000
0CFFFE3000001510
05FFFFF83126EFC0
00AFFFFFFFFFFFF6
001BFFFFFFFFFFF9
00008FFFFFFFFFB1
0000029DFFFFB500
00000007FFF60000
00000003BAFD0000
0000000298FD0000
00000007FFF70000
0000000079500000
ENDCHAR
STARTCHAR Egrave
ENCODING 200
SWIDTH 638 0
DWIDTH 15 0
BBX 15 23 0 0
BITMAP
00001DE940000000
00005FFFFEA20000
00007FFFFFF80000
000016BFFFF50000
000000016AB00000
0389999999999710
0DFFFFFFFFFFFF90
0FFFFFFFFFFFFFB0
1FFFFFFFFFFFFF90
1FFFFBAAAAAAA920
1FFFF30000000000
1FFFF30000000000
1FFFFEEEEED80000
1FFFFFFFFFFF0000
1FFFFFFFFFFF1000
1FFFFFFFFFFC0000
1FFFF75555410000
1FFFF30000000000
1FFFF64444444200
1FFFFFFFFFFFFF60
1FFFFFFFFFFFFFA0
0FFFFFFFFFFFFFA0
08EFFFFFFFFFFE40
ENDCHAR
STARTCHAR Eacute
ENCODING 201
SWIDTH 638 0
DWIDTH 15 0
BBX 15 24 0 0
BITMAP
0000000002500000
00000037CFF70000
00001CFFFFFC0000
00001FFFFFFA0000
00000CFFD8300000
0000037300000000
0389999999999710
0DFFFFFFFFFFFF90
0FFFFFFFFFFFFFB0
1FFFFFFFFFFFFF90
1FFFFBAAAAAAA920
1FFFF30000000000
1FFFF30000000000
1FFFFEEEEED80000
1FFFFFFFFFFF0000
1FFFFFFFFFFF1000
1FFFFFFFFFFC0000
1FFFF75555410000
1FFFF30000000000
1FFFF64444444200
1FFFFFFFFFFFFF60
1FFFFFFFFFFFFFA0
0FFFFFFFFFFFFFA0
08EFFFFFFFFFFE40
ENDCHAR
STARTCHAR Ecircumflex
ENCODING 202
SWIDTH 638 0
DWIDTH 15 0
BBX 15 24 0 0
BITMAP
0000001530000000
00015AFFFD830000
000DFFFFFFFF5000
000EFFFFFFFF6000
0006FE935CFD1000
0000100000210000
0389999999999710
0DFFFFFFFFFFFF90
0FFFFFFFFFFFFFB0
1FFFFFFFFFFFFF90
1FFFFBAAAAAAA920
1FFFF30000000000
1FFFF30000000000
1FFFFEEEEED80000
1FFFFFFFFFFF0000
1FFFFFFFFFFF1000
1FFFFFFFFFFC0000
1FFFF75555410000
1FFFF30000000000
1FFFF64444444200
1FFFFFFFFFFFFF60
1FFFFFFFFFFFFFA0
0FFFFFFFFFFFFFA0
08EFFFFFFFFFFE40
ENDCHAR
STARTCHAR Edieresis
ENCODING 203
SWIDTH 638 0
DWIDTH 15 0
BBX 15 24 0 0
BITMAP
0003540001552000
004FFF900CFFF100
007FFFC00FFFF400
007FFFC00EFFF400
001CED5007DEA000
0000000000000000
0389999999999710
0DFFFFFFFFFFFF90
0FFFFFFFFFFFFFB0
1FFFFFFFFFFFFF90
1FFFFBAAAAAAA920
1FFFF30000000000
1FFFF30000000000
1FFFFEEEEED80000
1FFFFFFFFFFF0000
1FFFFFFFFFFF1000
1FFFFFFFFFFC0000
1FFFF75555410000
1FFFF30000000000
1FFFF64444444200
1FFFFFFFFFFFFF60
1FFFFFFFFFFFFFA0
0FFFFFFFFFFFFFA0
08EFFFFFFFFFFE40
ENDCHAR
STARTCHAR Igrave
ENCODING 204
SWIDTH 267 0
DWIDTH 6 0
BBX 8 23 -2 0
BITMAP
08FB6100
0FFFFFC5
1FFFFFFD
04AEFFFA
000049C3
00028950
000CFFF3
000EFFF5
000EFFF5
000EFFF5
000EFFF5
000EFFF5
000EFFF5
000EFFF5
000EFFF5
000EFFF5
000EFFF5
000EFFF5
000EFFF5
000EFFF5
000EFFF5
000DFFF4
0007EFC1
ENDCHAR
STARTCHAR Iacute
ENCODING 205
SWIDTH 269 0
DWIDTH 6 0
BBX 8 24 0 0
BITMAP
00000340
0049DFF3
3EFFFFF8
6FFFFFF6
2FFFC720
05620000
02895000
0CFFF400
0DFFF500
0DFFF500
0DFFF500
0DFFF500
0DFFF500
0DFFF500
0DFFF500
0DFFF500
0DFFF500
0DFFF500
0DFFF500
0DFFF500
0DFFF500
0DFFF500
0DFFF500
06EFC100
ENDCHAR
STARTCHAR Icircumflex
ENCODING 206
SWIDTH 270 0
DWIDTH 6 0
BBX 10 24 -2 0
BITMAP
0000351000
038DFFFB61
6FFFFFFFFC
6FFFFFFFFE
1DFC529EF6
0010000120
0002895000
000CFFF400
000DFFF500
000DFFF500
000DFFF500
000DFFF500
000DFFF500
000DFFF500
000DFFF500
000DFFF500
000DFFF500
000DFFF500
000DFFF500
000DFFF500
000DFFF500
000DFFF500
000DFFF500
0006EFC100
ENDCHAR
STARTCHAR Idieresis
ENCODING 207
SWIDTH 268 0
DWIDTH 6 0
BBX 12 24 -3 0
BITMAP
015520003540
0DFFE106FFF7
1FFFF309FFFA
1FFFF208FFFA
07DD9003CEC3
000000000000
000028960000
0000BFFF4000
0000DFFF6000
0000DFFF6000
0000DFFF6000
0000DFFF6000
0000DFFF6000
0000DFFF6000
0000DFFF6000
0000DFFF6000
0000DFFF6000
0000DFFF6000
0000DFFF6000
0000DFFF6000
0000DFFF6000
0000DFFF6000
0000CFFF6000
00006EFC1000
ENDCHAR
STARTCHAR Eth
ENCODING 208
SWIDTH 775 0
DWIDTH 19 0
BBX 18 18 0 0
BITMAP
000699999874000000
004FFFFFFFFFE60000
005FFFFFFFFFFFB100
005FFFFFFFFFFFFC10
005FFFFAAADFFFFFA0
005FFFE00005EFFFF3
005FFFE000003FFFF9
05AFFFE7300009FFFD
5FFFFFFFD00005FFFE
5FFFFFFFE00004FFFE
1ADFFFFC700007FFFD
005FFFE000000DFFFA
005FFFE00001AFFFF5
005FFFE4447DFFFFC0
005FFFFFFFFFFFFE30
005FFFFFFFFFFFE400
004FFFFFFFFFFC3000
001BEFFFFEDA500000
ENDCHAR
STARTCHAR Ntilde
ENCODING 209
SWIDTH 720 0
DWIDTH 17 0
BBX 17 24 0 0
BITMAP
000000451004100000
00002CFFE66FE20000
0000CFFFFFFFF50000
0001FFFDFFFFC00000
00006D408EE9100000
000000000000000000
038840000000278500
0EFFF5000000CFFF30
1FFFFE200000EFFF50
1FFFFFC00000EFFF50
1FFFFFF80000EFFF50
1FFFFFFF4000EFFF50
1FFFFFFFE200EFFF50
1FFFFFFFFB00EFFF50
1FFFF9FFFF80EFFF50
1FFFF3AFFFF4EFFF50
1FFFF31DFFFEEFFF50
1FFFF303FFFFFFFF50
1FFFF3006FFFFFFF50
1FFFF3000AFFFFFF50
1FFFF30001DFFFFF50
1FFFF300003FFFFF50
0FFFF2000006FFFF40
08EFA00000008EFB10
ENDCHAR
STARTCHAR Ograve
ENCODING 210
SWIDTH 775 0
DWIDTH 19 0
BBX 18 24 0 -1
BITMAP
000003EC8300000000
000009FFFFE9100000
00000AFFFFFF400000
0000028CFFFF100000
0000000027B8000000
00000049BCA7200000
00004DFFFFFFFA1000
0007FFFFFFFFFFD300
006FFFFFFFFFFFFD10
02FFFFFD87AFFFFFB0
09FFFF800002DFFFF4
0EFFFA0000002EFFF9
3FFFF200000008FFFD
5FFFE000000005FFFE
6FFFD000000004FFFF
5FFFF000000006FFFD
2FFFF50000000BFFFA
0DFFFE2000006FFFF6
06FFFFE61029FFFFE1
00BFFFFFFFFFFFFF50
001DFFFFFFFFFFF800
0001BFFFFFFFFF7000
000005CFFFFEA30000
000000013431000000
ENDCHAR
STARTCHAR Oacute
ENCODING 211
SWIDTH 775 0
DWIDTH 19 0
BBX 18 25 0 -1
BITMAP
000000000004200000
000000015AEFE00000
0000006FFFFFF40000
000000AFFFFFF30000
0000005FFFB6100000
000000075100000000
00000049BCA7200000
00004DFFFFFFFA1000
0007FFFFFFFFFFD300
006FFFFFFFFFFFFD10
02FFFFFD87AFFFFFB0
09FFFF800002DFFFF4
0EFFFA0000002EFFF9
3FFFF200000008FFFD
5FFFE000000005FFFE
6FFFD000000004FFFF
5FFFF000000006FFFD
2FFFF50000000BFFFA
0DFFFE2000006FFFF6
06FFFFE61029FFFFE1
00BFFFFFFFFFFFFF50
001DFFFFFFFFFFF800
0001BFFFFFFFFF7000
000005CFFFFEA30000
000000013431000000
ENDCHAR
STARTCHAR Ocircumflex
ENCODING 212
SWIDTH 775 0
DWIDTH 19 0
BBX 18 25 0 -1
BITMAP
000000002510000000
0000028CFFFB610000
00004FFFFFFFFD0000
00005FFFFFFFFF1000
00000CFC628EF80000
000000100000200000
00000049BCA7200000
00004DFFFFFFFA1000
0007FFFFFFFFFFD300
006FFFFFFFFFFFFD10
02FFFFFD87AFFFFFB0
09FFFF800002DFFFF4
0EFFFA0000002EFFF9
3FFFF200000008FFFD
5FFFE000000005FFFE
6FFFD000000004FFFF
5FFFF000000006FFFD
2FFFF50000000BFFFA
0DFFFE2000006FFFF6
06FFFFE61029FFFFE1
00BFFFFFFFFFFFFF50
001DFFFFFFFFFFF800
0001BFFFFFFFFF7000
000005CFFFFEA30000
000000013431000000
ENDCHAR
STARTCHAR Otilde
ENCODING 213
SWIDTH 775 0
DWIDTH 19 0
BBX 18 25 0 -1
BITMAP
000000035200320000
000001AFFF84EF4000
000009FFFFFFFF7000
00000DFFDFFFFD1000
000004D706DEA20000
000000000000000000
00000049BCA7200000
00004DFFFFFFFA1000
0007FFFFFFFFFFD300
006FFFFFFFFFFFFD10
02FFFFFD87AFFFFFB0
09FFFF800002DFFFF4
0EFFFA0000002EFFF9
3FFFF200000008FFFD
5FFFE000000005FFFE
6FFFD000000004FFFF
5FFFF000000006FFFD
2FFFF50000000BFFFA
0DFFFE2000006FFFF6
06FFFFE61029FFFFE1
00BFFFFFFFFFFFFF50
001DFFFFFFFFFFF800
0001BFFFFFFFFF7000
000005CFFFFEA30000
000000013431000000
ENDCHAR
STARTCHAR Odieresis
ENCODING 214
SWIDTH 775 0
DWIDTH 19 0
BBX 18 25 0 -1
BITMAP
000025510004530000
0001EFFD007FFF5000
0002FFFF10AFFF9000
0002FFFF10AFFF8000
00009DD8003CEC2000
000000000000000000
00000049BCA7200000
00004DFFFFFFFA1000
0007FFFFFFFFFFD300
006FFFFFFFFFFFFD10
02FFFFFD87AFFFFFB0
09FFFF800002DFFFF4
0EFFFA0000002EFFF9
3FFFF200000008FFFD
5FFFE000000005FFFE
6FFFD000000004FFFF
5FFFF000000006FFFD
2FFFF50000000BFFFA
0DFFFE2000006FFFF6
06FFFFE61029FFFFE1
00BFFFFFFFFFFFFF50
001DFFFFFFFFFFF800
0001BFFFFFFFFF7000
000005CFFFFEA30000
000000013431000000
ENDCHAR
STARTCHAR multiply
ENCODING 215
SWIDTH 521 0
DWIDTH 13 0
BBX 12 12 0 0
BITMAP
04D910004DA1
2FFFB105FFFA
4FFFFB5FFFFB
08FFFFFFFFE2
008FFFFFFE20
000AFFFFF300
005FFFFFFB10
05FFFFFFFFB1
2EFFFD9FFFF9
4FFFE208FFFC
09FD20008FE3
003100000310
ENDCHAR
STARTCHAR Oslash
ENCODING 216
SWIDTH 775 0
DWIDTH 19 0
BBX 18 21 0 -2
BITMAP
000000000001A93000
00000059BCABFFF400
00004DFFFFFFFFF500
0007FFFFFFFFFFF300
006FFFFFFFFFFFFD20
02FFFFFD8BFFFFFFA0
09FFFF800DFFFFFFF3
0EFFFA006FFFEEFFF9
3FFFF200DFFF89FFFC
5FFFD005FFFE15FFFE
6FFFE00CFFF904FFFF
4FFFF15FFFF206FFFD
2FFFF6CFFF900BFFFB
0CFFFEFFFF206FFFF6
06FFFFFFFA29FFFFE1
00BFFFFFFFFFFFFF50
001DFFFFFFFFFFF800
0004FFFFFFFFFF7000
0006FFFFFFFEA30000
0002CFF43431000000
000003300000000000
ENDCHAR
STARTCHAR Ugrave
ENCODING 217
SWIDTH 726 0
DWIDTH 17 0
BBX 17 24 0 -1
BITMAP
00008FB61000000000
0000FFFFFC50000000
0002FFFFFFD0000000
00004AEFFFA0000000
000000049C30000000
038950000000189600
0EFFF1000000AFFF50
1FFFF3000000CFFF70
1FFFF4000000CFFF70
1FFFF4000000CFFF70
1FFFF4000000CFFF70
1FFFF4000000CFFF70
1FFFF4000000CFFF70
1FFFF4000000CFFF70
1FFFF4000000CFFF70
0FFFF5000000DFFF60
0DFFF8000002FFFF40
09FFFE100009FFFF10
04FFFFC3017FFFFA00
00BFFFFFFFFFFFF300
002EFFFFFFFFFF7000
0003EFFFFFFFF80000
000018EFFFFB300000
000000024310000000
ENDCHAR
STARTCHAR Uacute
ENCODING 218
SWIDTH 726 0
DWIDTH 17 0
BBX 17 25 0 -1
BITMAP
000000000004200000
000000015AEFE00000
0000006FFFFFF40000
000000AFFFFFF30000
0000005FFFB6100000
000000075100000000
038950000000189600
0EFFF1000000AFFF50
1FFFF3000000CFFF70
1FFFF4000000CFFF70
1FFFF4000000CFFF70
1FFFF4000000CFFF70
1FFFF4000000CFFF70
1FFFF4000000CFFF70
1FFFF4000000CFFF70
1FFFF4000000CFFF70
0FFFF5000000DFFF60
0DFFF8000002FFFF40
09FFFE100009FFFF10
04FFFFC3017FFFFA00
00BFFFFFFFFFFFF300
002EFFFFFFFFFF7000
0003EFFFFFFFF80000
000018EFFFFB300000
000000024310000000
ENDCHAR
STARTCHAR Ucircumflex
ENCODING 219
SWIDTH 726 0
DWIDTH 17 0
BBX 17 25 0 -1
BITMAP
000000004400000000
0000049EFFE9400000
00009FFFFFFFF90000
0000AFFFFFFFFB0000
00002EFA43AFF30000
000001100001100000
038950000000189600
0EFFF1000000AFFF50
1FFFF3000000CFFF70
1FFFF4000000CFFF70
1FFFF4000000CFFF70
1FFFF4000000CFFF70
1FFFF4000000CFFF70
1FFFF4000000CFFF70
1FFFF4000000CFFF70
1FFFF4000000CFFF70
0FFFF5000000DFFF60
0DFFF8000002FFFF40
09FFFE100009FFFF10
04FFFFC3017FFFFA00
00BFFFFFFFFFFFF300
002EFFFFFFFFFF7000
0003EFFFFFFFF80000
000018EFFFFB300000
000000024310000000
ENDCHAR
STARTCHAR Udieresis
ENCODING 220
SWIDTH 726 0
DWIDTH 17 0
BBX 17 25 0 -1
BITMAP
000045400025510000
0007FFF601EFFD0000
000AFFF903FFFF1000
0009FFF902FFFF1000
0003CEC3009DD80000
000000000000000000
038950000000189600
0EFFF1000000AFFF50
1FFFF3000000CFFF70
1FFFF4000000CFFF70
1FFFF4000000CFFF70
1FFFF4000000CFFF70
1FFFF4000000CFFF70
1FFFF4000000CFFF70
1FFFF4000000CFFF70
1FFFF4000000CFFF70
0FFFF5000000DFFF60
0DFFF8000002FFFF40
09FFFE100009FFFF10
04FFFFC3017FFFFA00
00BFFFFFFFFFFFF300
002EFFFFFFFFFF7000
0003EFFFFFFFF80000
000018EFFFFB300000
000000024310000000
ENDCHAR
STARTCHAR Yacute
ENCODING 221
SWIDTH 686 0
DWIDTH 16 0
BBX 17 24 0 0
BITMAP
000000000142000000
00000016AEFC000000
000008FFFFFF200000
00000CFFFFFE100000
000007FFEA51000000
000001740000000000
03BA100000006C7000
4FFF90000003FFFB00
9FFFF400000CFFFF10
2FFFFD00006FFFF900
07FFFF8001EFFFD100
00CFFFF20AFFFF4000
003FFFFB4FFFF90000
0007FFFFEFFFD10000
0000CFFFFFFF400000
00003FFFFFF9000000
000007FFFFD1000000
000000EFFF60000000
000000EFFF60000000
000000EFFF60000000
000000EFFF60000000
000000EFFF60000000
000000DFFF50000000
0000007FFD10000000
ENDCHAR
STARTCHAR Thorn
ENCODING 222
SWIDTH 634 0
DWIDTH 15 0
BBX 15 18 0 0
BITMAP
0388400000000000
0EFFF20000000000
1FFFF53320000000
1FFFFFFFFFA30000
1FFFFFFFFFFF7000
1FFFFFFFFFFFF600
1FFFFFFFFFFFFE00
1FFFF41129FFFF50
1FFFF30000CFFF70
1FFFF30000BFFF80
1FFFF30003EFFF60
1FFFFBAABFFFFF20
1FFFFFFFFFFFFA00
1FFFFFFFFFFFC100
1FFFFFFFFFF91000
1FFFFA9986200000
0FFFF30000000000
08EEA00000000000
ENDCHAR
STARTCHAR germandbls
ENCODING 223
SWIDTH 633 0
DWIDTH 15 0
BBX 15 19 0 -1
BITMAP
0005ADFFFC810000
01BFFFFFFFFD1000
08FFFFFFFFFF5000
0DFFFE98DFFF6000
0FFFF500BFFF4000
1FFFF205FFFD0000
1FFFF21EFFF40000
1FFFF24FFF900000
1FFFF24FFFB10000
1FFFF21EFFFC2000
1FFFF205FFFFE400
1FFFF2004DFFFE10
1FFFF20001BFFF60
1FFFF202006FFF80
1FFFF24FEADFFF80
1FFFF29FFFFFFF50
1FFFF2AFFFFFFD00
0FFFF13BEFFEA100
05BB600000100000
ENDCHAR
STARTCHAR agrave
ENCODING 224
SWIDTH 596 0
DWIDTH 14 0
BBX 14 19 0 0
BITMAP
00002840000000
0000BFFEA51000
0000FFFFFFD000
0000AFFFFFD000
0000016BFF9000
00000000141000
00003896128960
001AFFFFDCFFF3
00CFFFFFFFFFF5
08FFFFFFFFFFF5
1EFFFE9AFFFFF5
4FFFF3006FFFF5
6FFFD0001FFFF5
5FFFE1004FFFF5
2FFFFC56DFFFF5
0BFFFFFFFFFFF5
02EFFFFFFFFFF5
003EFFFFFEFFF5
00019DEC55DEB1
ENDCHAR
STARTCHAR aacute
ENCODING 225
SWIDTH 596 0
DWIDTH 14 0
BBX 14 19 0 0
BITMAP
00000000374000
0000048DFFE100
00009FFFFFF400
00009FFFFFC200
00004FFC730000
00000420000000
00003896128960
001AFFFFDCFFF3
00CFFFFFFFFFF5
08FFFFFFFFFFF5
1EFFFE9AFFFFF5
4FFFF3006FFFF5
6FFFD0001FFFF5
5FFFE1004FFFF5
2FFFFC56DFFFF5
0BFFFFFFFFFFF5
02EFFFFFFFFFF5
003EFFFFFEFFF5
00019DEC55DEB1
ENDCHAR
STARTCHAR acircumflex
ENCODING 226
SWIDTH 596 0
DWIDTH 14 0
BBX 14 19 0 0
BITMAP
00000037620000
00028DFFFFC600
000DFFFFFFFF80
000BFFFEFFFF70
0003DC6128EC00
00000000000000
00003896128960
001AFFFFDCFFF3
00CFFFFFFFFFF5
08FFFFFFFFFFF5
1EFFFE9AFFFFF5
4FFFF3006FFFF5
6FFFD0001FFFF5
5FFFE1004FFFF5
2FFFFC56DFFFF5
0BFFFFFFFFFFF5
02EFFFFFFFFFF5
003EFFFFFEFFF5
00019DEC55DEB1
ENDCHAR
STARTCHAR atilde
ENCODING 227
SWIDTH 596 0
DWIDTH 14 0
BBX 14 19 0 0
BITMAP
00001685005400
0002DFFFB8FF50
000BFFFFFFFF60
000DFEAFFFFC00
0002A403AB7100
00000000000000
00003896128960
001AFFFFDCFFF3
00CFFFFFFFFFF5
08FFFFFFFFFFF5
1EFFFE9AFFFFF5
4FFFF3006FFFF5
6FFFD0001FFFF5
5FFFE1004FFFF5
2FFFFC56DFFFF5
0BFFFFFFFFFFF5
02EFFFFFFFFFF5
003EFFFFFEFFF5
00019DEC55DEB1
ENDCHAR
STARTCHAR adieresis
ENCODING 228
SWIDTH 596 0
DWIDTH 14 0
BBX 14 19 0 0
BITMAP
00068710038840
007FFF900EFFF1
008FFFB01FFFF3
007FFF901FFFF2
0019B92005AA60
00000000000000
00003896128960
001AFFFFDCFFF3
00CFFFFFFFFFF5
08FFFFFFFFFFF5
1EFFFE9AFFFFF5
4FFFF3006FFFF5
6FFFD0001FFFF5
5FFFE1004FFFF5
2FFFFC56DFFFF5
0BFFFFFFFFFFF5
02EFFFFFFFFFF5
003EFFFFFEFFF5
00019DEC55DEB1
ENDCHAR
STARTCHAR aring
ENCODING 229
SWIDTH 596 0
DWIDTH 14 0
BBX 14 18 0 0
BITMAP
0000008EE50000
000005E68F2000
000008C00F4000
000004F9AE1000
0000005CB30000
00003896128960
001AFFFFDCFFF3
00CFFFFFFFFFF5
08FFFFFFFFFFF5
1EFFFE9AFFFFF5
4FFFF3006FFFF5
6FFFD0001FFFF5
5FFFE1004FFFF5
2FFFFC56DFFFF5
0BFFFFFFFFFFF5
02EFFFFFFFFFF5
003EFFFFFEFFF5
00019DEC55DEB1
ENDCHAR
STARTCHAR ae
ENCODING 230
SWIDTH 910 0
DWIDTH 22 0
BBX 22 14 0 -1
BITMAP
00038BCB820027ABA72000
01BFFFFFFF68FFFFFFF600
0CFFFFFFFFFFFFFFFFFF50
0EFFFFFFFFFFFFFEFFFFD0
07FFE625FFFFFE302FFFF3
006A3000AFFFF7223EFFF3
00279A977FFFFFFFFFFFE0
08FFFFFFFFFFFFFFFFFD40
3FFFC879CFFFF800000000
6FFF50007FFFFFB77AED10
4FFFEAAEFFFFFFFFFFFF70
0DFFFFFFFD6EFFFFFFFF70
02BFFFFE91018EFFFEB600
0001332000000012100000
ENDCHAR
STARTCHAR ccedilla
ENCODING 231
SWIDTH 524 0
DWIDTH 13 0
BBX 12 18 0 -5
BITMAP
00004ADDB710
001BFFFFFFE4
01DFFFFFFFFD
09FFFFFFFFFB
1FFFFF98DFE3
4FFFF5000520
6FFFF0000000
5FFFF3000000
2FFFFD539FA0
0BFFFFFFFFF9
03EFFFFFFFFE
003EFFFFFFF7
00018FFFFC50
00001FFFE100
0000088DF600
0000099DF600
00001FFFD100
000003971000
ENDCHAR
STARTCHAR egrave
ENCODING 232
SWIDTH 573 0
DWIDTH 14 0
BBX 14 20 0 -1
BITMAP
00007610000000
0004FFFC720000
0008FFFFFF5000
0004EFFFFF5000
0000049DFE1000
00000000330000
00005ACDC93000
002CFFFFFFF700
01DFFFFFFFFF50
0AFFFFFEFFFFC0
1FFFFC204FFFF1
4FFFF4224FFFF2
6FFFFFFFFFFFD0
5FFFFFFFFFFD40
2FFFF511111000
0CFFFE9669EB00
04FFFFFFFFFF60
007FFFFFFFFF70
0004CFFFFFF910
00000135431000
ENDCHAR
STARTCHAR eacute
ENCODING 233
SWIDTH 573 0
DWIDTH 14 0
BBX 14 20 0 -1
BITMAP
00000000483000
0000059EFFC000
0000CFFFFFF100
0000CFFFFFB000
00008FFB620000
00000410000000
00005ACDC93000
002CFFFFFFF700
01DFFFFFFFFF50
0AFFFFFEFFFFC0
1FFFFC204FFFF1
4FFFF4224FFFF2
6FFFFFFFFFFFD0
5FFFFFFFFFFD40
2FFFF511111000
0CFFFE9669EB00
04FFFFFFFFFF60
007FFFFFFFFF70
0004CFFFFFF910
00000135431000
ENDCHAR
STARTCHAR ecircumflex
ENCODING 234
SWIDTH 573 0
DWIDTH 14 0
BBX 14 20 0 -1
BITMAP
00000267300000
0017CFFFFD8100
009FFFFFFFFC00
007FFFFEFFFB00
001BD8217DE300
00000000000000
00005ACDC93000
002CFFFFFFF700
01DFFFFFFFFF50
0AFFFFFEFFFFC0
1FFFFC204FFFF1
4FFFF4224FFFF2
6FFFFFFFFFFFD0
5FFFFFFFFFFD40
2FFFF511111000
0CFFFE9669EB00
04FFFFFFFFFF60
007FFFFFFFFF70
0004CFFFFFF910
00000135431000
ENDCHAR
STARTCHAR edieresis
ENCODING 235
SWIDTH 573 0
DWIDTH 14 0
BBX 14 20 0 -1
BITMAP
00687200278500
05FFFA00DFFF30
07FFFC00FFFF50
06FFFB00DFFF30
018BA3004AA700
00000000000000
00005ACDC93000
002CFFFFFFF700
01DFFFFFFFFF50
0AFFFFFEFFFFC0
1FFFFC204FFFF1
4FFFF4224FFFF2
6FFFFFFFFFFFD0
5FFFFFFFFFFD40
2FFFF511111000
0CFFFE9669EB00
04FFFFFFFFFF60
007FFFFFFFFF70
0004CFFFFFF910
00000135431000
ENDCHAR
STARTCHAR igrave
ENCODING 236
SWIDTH 255 0
DWIDTH 6 0
BBX 8 19 -2 0
BITMAP
03840000
0CFFE950
1FFFFFFC
0BFFFFFD
0026BFF8
00000140
00049940
000EFFF1
001FFFF2
001FFFF2
001FFFF2
001FFFF2
001FFFF2
001FFFF2
001FFFF2
001FFFF2
001FFFF2
000FFFF2
0009EFA0
ENDCHAR
STARTCHAR iacute
ENCODING 237
SWIDTH 255 0
DWIDTH 6 0
BBX 8 19 0 0
BITMAP
00002750
038CFFF2
7FFFFFF6
8FFFFFD3
3FFD8300
03200000
04994000
0EFFF100
1FFFF200
1FFFF200
1FFFF200
1FFFF200
1FFFF200
1FFFF200
1FFFF200
1FFFF200
1FFFF200
0FFFF200
09EFA000
ENDCHAR
STARTCHAR icircumflex
ENCODING 238
SWIDTH 255 0
DWIDTH 6 0
BBX 10 19 -2 0
BITMAP
0002673000
17CFFFFD81
9FFFFFFFFB
8FFFFEFFFA
1CD8217DD2
0000000000
0004994000
000EFFF100
001FFFF200
001FFFF200
001FFFF200
001FFFF200
001FFFF200
001FFFF200
001FFFF200
001FFFF200
001FFFF200
000FFFF200
0009EFA000
ENDCHAR
STARTCHAR idieresis
ENCODING 239
SWIDTH 255 0
DWIDTH 6 0
BBX 12 19 -3 0
BITMAP
058720027860
2FFFD00BFFF5
4FFFF00CFFF7
3FFFE00BFFF6
07AA4003AB81
000000000000
000049950000
0000EFFF1000
0000FFFF3000
0000FFFF3000
0000FFFF3000
0000FFFF3000
0000FFFF3000
0000FFFF3000
0000FFFF3000
0000FFFF3000
0000FFFF3000
0000FFFF2000
00008EFA0000
ENDCHAR
STARTCHAR eth
ENCODING 240
SWIDTH 585 0
DWIDTH 14 0
BBX 14 21 0 -1
BITMAP
00000001300000
0000261BF60000
0000DFFFF30000
0003FFFFE30000
00009FFFFF4000
0000AFDEFFE200
0000BE32DFFC00
000004543EFF50
0005DFFFECFFB0
008FFFFFFFFFF0
05FFFFFFFFFFF3
0DFFFFAAEFFFF5
3FFFF3003FFFF6
5FFFC0000CFFF6
5FFFD0000DFFF5
3FFFF8008FFFF2
0CFFFFFFFFFFB0
04FFFFFFFFFE30
005EFFFFFFE400
0002AFFFFA2000
00000133100000
ENDCHAR
STARTCHAR ntilde
ENCODING 241
SWIDTH 606 0
DWIDTH 15 0
BBX 14 19 0 0
BITMAP
00003772017100
0007FFFE7CFD00
003FFFFFFFFE00
005FFBCFFFF500
0006A107BA4000
00000000000000
04995049961000
0EFFF8FFFFE400
1FFFFFFFFFFF30
1FFFFFFFFFFFC0
1FFFFFB9DFFFF4
1FFFF8001EFFF7
1FFFF3000AFFF8
1FFFF2000AFFF9
1FFFF2000AFFF9
1FFFF2000AFFF9
1FFFF2000AFFF9
0FFFF20009FFF8
08EE900003DED3
ENDCHAR
STARTCHAR ograve
ENCODING 242
SWIDTH 600 0
DWIDTH 14 0
BBX 14 20 0 -1
BITMAP
00005720000000
0001FFFD840000
0005FFFFFF8000
0002DFFFFF9000
0000038CFF4000
00000000240000
00005ADEC81000
001BFFFFFFE500
01CFFFFFFFFF50
09FFFFFFFFFFE1
1FFFFE75BFFFF7
4FFFF3000BFFFA
6FFFD00008FFFC
5FFFF1000AFFFB
2FFFFB217FFFF8
0BFFFFFFFFFFF2
02EFFFFFFFFF80
003EFFFFFFF900
00019EFFFB5000
00000023100000
ENDCHAR
STARTCHAR oacute
ENCODING 243
SWIDTH 600 0
DWIDTH 14 0
BBX 14 20 0 -1
BITMAP
00000000374000
0000049DFFE000
00009FFFFFF300
0000AFFFFFC100
00005FFC720000
00000420000000
00005ADEC81000
001BFFFFFFE500
01CFFFFFFFFF50
09FFFFFFFFFFE1
1FFFFE75BFFFF7
4FFFF3000BFFFA
6FFFD00008FFFC
5FFFF1000AFFFB
2FFFFB217FFFF8
0BFFFFFFFFFFF2
02EFFFFFFFFF80
003EFFFFFFF900
00019EFFFB5000
00000023100000
ENDCHAR
STARTCHAR ocircumflex
ENCODING 244
SWIDTH 600 0
DWIDTH 14 0
BBX 14 20 0 -1
BITMAP
00000168400000
0006BFFFFE9200
006FFFFFFFFE00
005FFFFEFFFD00
000AD9305CE500
00000000000000
00005ADEC81000
001BFFFFFFE500
01CFFFFFFFFF50
09FFFFFFFFFFE1
1FFFFE75BFFFF7
4FFFF3000BFFFA
6FFFD00008FFFC
5FFFF1000AFFFB
2FFFFB217FFFF8
0BFFFFFFFFFFF2
02EFFFFFFFFF80
003EFFFFFFF900
00019EFFFB5000
00000023100000
ENDCHAR
STARTCHAR otilde
ENCODING 245
SWIDTH 600 0
DWIDTH 14 0
BBX 14 20 0 -1
BITMAP
00004872027100
0008FFFE7DFC00
004FFFFFFFFD00
006FFBDFFFF400
00079018BA3000
00000000000000
00005ADEC81000
001BFFFFFFE500
01CFFFFFFFFF50
09FFFFFFFFFFE1
1FFFFE75BFFFF7
4FFFF3000BFFFA
6FFFD00008FFFC
5FFFF1000AFFFB
2FFFFB217FFFF8
0BFFFFFFFFFFF2
02EFFFFFFFFF80
003EFFFFFFF900
00019EFFFB5000
00000023100000
ENDCHAR
STARTCHAR odieresis
ENCODING 246
SWIDTH 600 0
DWIDTH 14 0
BBX 14 20 0 -1
BITMAP
00587300278600
02FFFD00AFFF50
04FFFF00CFFF70
03FFFE00BFFF60
007AA4002AB810
00000000000000
00005ADEC81000
001BFFFFFFE500
01CFFFFFFFFF50
09FFFFFFFFFFE1
1FFFFE75BFFFF7
4FFFF3000BFFFA
6FFFD00008FFFC
5FFFF1000AFFFB
2FFFFB217FFFF8
0BFFFFFFFFFFF2
02EFFFFFFFFF80
003EFFFFFFF900
00019EFFFB5000
00000023100000
ENDCHAR
STARTCHAR divide
ENCODING 247
SWIDTH 503 0
DWIDTH 12 0
BBX 12 14 0 0
BITMAP
000001100000
00008FF90000
0000DFFE0000
0000DFFE0000
00005CC50000
024444444430
3FFFFFFFFFF4
6FFFFFFFFFF7
2EFFFFFFFFF3
002222222210
00006EE70000
0000DFFE0000
0000DFFE0000
00006DD70000
ENDCHAR
STARTCHAR oslash
ENCODING 248
SWIDTH 600 0
DWIDTH 14 0
BBX 14 21 0 -4
BITMAP
00000000005200
0000000009FF90
000000002FFFF1
000000009FFFC0
00004ADDFFFF50
001BFFFFFFFD00
01CFFFFFFFFF40
09FFFFFFFFFFE1
1FFFFE76BFFFF6
4FFFF3000CFFFA
6FFFD00008FFFC
5FFFF1000AFFFB
2FFFFB217FFFF8
0BFFFFFFFFFFF3
03EFFFFFFFFF80
007FFFFFFFF900
00CFFFFFFC5000
04FFFF43100000
0AFFF900000000
08FFF200000000
005A6000000000
ENDCHAR
STARTCHAR ugrave
ENCODING 249
SWIDTH 606 0
DWIDTH 15 0
BBX 14 19 0 0
BITMAP
00005720000000
0001FFFD830000
0005FFFFFF8000
0002DFFFFF8000
0000038CFF4000
00000000240000
049A5000018A81
0EFFF10008FFF7
1FFFF30009FFF9
1FFFF30009FFF9
1FFFF30009FFF9
1FFFF30009FFF9
1FFFF30009FFF9
0FFFF6000CFFF9
0CFFFE65AFFFF9
07FFFFFFFFFFF9
01DFFFFFFFFFF9
002DFFFFFCFFF8
00018CEC43DED3
ENDCHAR
STARTCHAR uacute
ENCODING 250
SWIDTH 606 0
DWIDTH 15 0
BBX 14 19 0 0
BITMAP
00000000167000
0000027BFFF500
00004FFFFFF900
00004FFFFFE500
00001EFE940000
00000230000000
049A5000018A81
0EFFF10008FFF7
1FFFF30009FFF9
1FFFF30009FFF9
1FFFF30009FFF9
1FFFF30009FFF9
1FFFF30009FFF9
0FFFF6000CFFF9
0CFFFE65AFFFF9
07FFFFFFFFFFF9
01DFFFFFFFFFF9
002DFFFFFCFFF8
00018CEC43DED3
ENDCHAR
STARTCHAR ucircumflex
ENCODING 251
SWIDTH 606 0
DWIDTH 15 0
BBX 14 19 0 0
BITMAP
00000158400000
0005AFFFFE9300
005FFFFFFFFF10
003FFFFEFFFE10
0008EA305BF600
00000000000000
049A5000018A81
0EFFF10008FFF7
1FFFF30009FFF9
1FFFF30009FFF9
1FFFF30009FFF9
1FFFF30009FFF9
1FFFF30009FFF9
0FFFF6000CFFF9
0CFFFE65AFFFF9
07FFFFFFFFFFF9
01DFFFFFFFFFF9
002DFFFFFCFFF8
00018CEC43DED3
ENDCHAR
STARTCHAR udieresis
ENCODING 252
SWIDTH 606 0
DWIDTH 15 0
BBX 14 19 0 0
BITMAP
00488300178600
01FFFE009FFF70
02FFFF20BFFF90
01FFFF109FFF80
006AA50029B910
00000000000000
049A5000018A81
0EFFF10008FFF7
1FFFF30009FFF9
1FFFF30009FFF9
1FFFF30009FFF9
1FFFF30009FFF9
1FFFF30009FFF9
0FFFF6000CFFF9
0CFFFE65AFFFF9
07FFFFFFFFFFF9
01DFFFFFFFFFF9
002DFFFFFCFFF8
00018CEC43DED3
ENDCHAR
STARTCHAR yacute
ENCODING 253
SWIDTH 604 0
DWIDTH 15 0
BBX 15 25 0 -6
BITMAP
0000000026600000
0000027CFFF40000
00005FFFFFF70000
00006FFFFFE40000
00001EFD94000000
0000033000000000
05CB1000006C9200
6FFF900001EFFE10
8FFFF30007FFFF10
1EFFFB000EFFF900
07FFFF506FFFF300
00CFFFE1CFFFB000
004FFFFBFFFF4000
000AFFFFFFFD0000
0002EFFFFFF60000
00007FFFFFE00000
00000DFFFF800000
000008FFFF100000
00000EFFF9000000
00006FFFF2000000
0000DFFFB0000000
0004FFFF40000000
0009FFFC00000000
0006FFF600000000
0000387000000000
ENDCHAR
STARTCHAR thorn
ENCODING 254
SWIDTH 580 0
DWIDTH 14 0
BBX 14 25 0 -6
BITMAP
07CD5000000000
0FFFC000000000
1FFFD000000000
1FFFD000000000
1FFFD000000000
1FFFD000000000
1FFFD179830000
1FFFEEFFFF9000
1FFFFFFFFFFA00
1FFFFFFFFFFF60
1FFFFFAAFFFFD0
1FFFF5005FFFF3
1FFFF0000EFFF4
1FFFF2002FFFF4
1FFFFD55DFFFF1
1FFFFFFFFFFF90
1FFFFFFFFFFD10
1FFFFFFFFFD300
1FFFD6CED81000
1FFFD000000000
1FFFD000000000
1FFFD000000000
0FFFC000000000
0DFFA000000000
02661000000000
ENDCHAR
STARTCHAR ydieresis
ENCODING 255
SWIDTH 604 0
DWIDTH 15 0
BBX 15 25 0 -6
BITMAP
0027850005872000
00CFFF405FFFB000
00EFFF607FFFD000
00CFFF405FFFC000
003AB80008BA3000
0000000000000000
05CB1000006C9200
6FFF900001EFFE10
8FFFF30007FFFF10
1EFFFB000EFFF900
07FFFF506FFFF300
00CFFFE1CFFFB000
004FFFFBFFFF4000
000AFFFFFFFD0000
0002EFFFFFF60000
00007FFFFFE00000
00000DFFFF800000
000008FFFF100000
00000EFFF9000000
00006FFFF2000000
0000DFFFB0000000
0004FFFF40000000
0009FFFC00000000
0006FFF600000000
0000387000000000
ENDCHAR
STARTCHAR dotlessi
ENCODING 305
SWIDTH 255 0
DWIDTH 6 0
BBX 6 13 0 0
BITMAP
049940
0EFFF1
1FFFF2
1FFFF2
1FFFF2
1FFFF2
1FFFF2
1FFFF2
1FFFF2
1FFFF2
1FFFF2
0FFFF2
09EFA0
ENDCHAR
STARTCHAR Lslash
ENCODING 321
SWIDTH 687 0
DWIDTH 16 0
BBX 16 18 0 0
BITMAP
0001797100000000
0008FFF700000000
000AFFF900000000
000AFFF900000000
000AFFF900000000
000AFFF900000000
000AFFFC9D900000
000AFFFFFFF00000
19EFFFFFFFD00000
5FFFFFFE84000000
2FFFFFF900000000
034AFFF900000000
000AFFF900000000
000AFFF900000000
000AFFFC88888883
000AFFFFFFFFFFFC
0009FFFFFFFFFFFD
0003DFFFFFFFFFE8
ENDCHAR
STARTCHAR lslash
ENCODING 322
SWIDTH 468 0
DWIDTH 11 0
BBX 11 19 0 0
BITMAP
000289600000
000BFFF40000
000CFFF60000
000CFFF60000
000CFFF60000
000CFFF60000
000CFFF60000
000CFFFAAE50
000DFFFFFFC0
3BEFFFFFFFA0
9FFFFFFC7300
6FFFFFF60000
053DFFF60000
000CFFF60000
000CFFF80000
000BFFFFF600
0009FFFFFA00
0003FFFFFA00
00005BEFE500
ENDCHAR
STARTCHAR OE
ENCODING 338
SWIDTH 1092 0
DWIDTH 26 0
BBX 26 18 0 0
BITMAP
00000037899999999999999971
00003CFFFFFFFFFFFFFFFFFFF7
0006FFFFFFFFFFFFFFFFFFFFF9
005FFFFFFFFFFFFFFFFFFFFFF7
02EFFFFEA889FFFFAAAAAAAA81
09FFFF910002FFFF2000000000
0EFFFA000002FFFF2000000000
4FFFF2000002FFFFEEEEED6000
5FFFE0000002FFFFFFFFFFE000
6FFFD0000002FFFFFFFFFFE000
4FFFF1000002FFFFFFFFFFB000
1FFFF6000002FFFF6555541000
0CFFFE300002FFFF2000000000
04FFFFF94224FFFF5444444420
009FFFFFFFFFFFFFFFFFFFFFF5
000BFFFFFFFFFFFFFFFFFFFFF9
00008FFFFFFFFFFFFFFFFFFFF8
0000028CEFFFFFFFFFFFFFFFD3
ENDCHAR
STARTCHAR oe
ENCODING 339
SWIDTH 944 0
DWIDTH 23 0
BBX 22 14 0 -1
BITMAP
00004ACDB710038ABA6100
001BFFFFFFE5AFFFFFFE40
01CFFFFFFFFFFFFFFFFFF3
09FFFFFFFFFFFFFFEFFFFB
1FFFFE76BFFFFFC205FFFF
4FFFF3000CFFFF5225FFFF
6FFFD00008FFFFFFFFFFFC
5FFFE1000AFFFFFFFFFFC2
2FFFFA107FFFFF50000000
0CFFFFFFFFFFFFFA78BFB0
03EFFFFFFFFFFFFFFFFFF5
004EFFFFFFFBFFFFFFFFF5
0002AEFFFC502AEFFFEA50
0000013420000002210000
ENDCHAR
STARTCHAR Scaron
ENCODING 352
SWIDTH 583 0
DWIDTH 14 0
BBX 14 25 0 -1
BITMAP
00043000033000
005FFD66DFF400
00AFFFFFFFFB00
007FFFFFFFF700
00027CFFC72000
00000011000000
00018BDCA71000
004EFFFFFFE600
03FFFFFFFFFF30
0BFFFFFFFFFF30
0FFFFA229FF800
1FFFF300035000
0EFFFB20000000
0AFFFFFDA61000
02EFFFFFFFE800
003CFFFFFFFF90
000049DFFFFFF1
000000029FFFF4
05EC20000EFFF5
3FFFE4003FFFF4
5FFFFFCCFFFFE1
0CFFFFFFFFFF80
01CFFFFFFFFA00
0006DFFFFC5000
00000133100000
ENDCHAR
STARTCHAR scaron
ENCODING 353
SWIDTH 489 0
DWIDTH 12 0
BBX 12 20 0 -1
BITMAP
028500037300
0CFFD8CFFE10
1FFFFFFFFF60
09FFFFFFFB20
0016BEC72000
000000000000
0017BDDB8200
03EFFFFFFF50
0BFFFFFFFF60
0EFFE77AEC10
0EFFE5101000
0BFFFFFD9300
04FFFFFFFF50
005DFFFFFFD0
014148BFFFF1
0BFE834DFFF1
4FFFFFFFFFE0
3FFFFFFFFF60
029EFFFFB500
000023210000
ENDCHAR
STARTCHAR Ydieresis
ENCODING 376
SWIDTH 686 0
DWIDTH 16 0
BBX 17 24 0 0
BITMAP
000155100045300000
000EFFD007FFF60000
002FFFF20AFFF90000
002FFFF10AFFF80000
0009DD8003CEC30000
000000000000000000
03BA100000006C7000
4FFF90000003FFFB00
9FFFF400000CFFFF10
2FFFFD00006FFFF900
07FFFF8001EFFFD100
00CFFFF20AFFFF4000
003FFFFB4FFFF90000
0007FFFFEFFFD10000
0000CFFFFFFF400000
00003FFFFFF9000000
000007FFFFD1000000
000000EFFF60000000
000000EFFF60000000
000000EFFF60000000
000000EFFF60000000
000000EFFF60000000
000000DFFF50000000
0000007FFD10000000
ENDCHAR
STARTCHAR Zcaron
ENCODING 381
SWIDTH 643 0
DWIDTH 15 0
BBX 15 25 0 -1
BITMAP
0000520001410000
0009FFB58EFD1000
000FFFFFFFFF6000
000CFFFFFFFE3000
000038DFEA510000
0000000210000000
0699999999999400
4FFFFFFFFFFFFF30
6FFFFFFFFFFFFF70
4FFFFFFFFFFFFF30
05888888EFFFF800
00000005FFFFC000
0000002EFFFE2000
000000CFFFF60000
000008FFFFA00000
00004FFFFD100000
0001DFFFF3000000
000AFFFF70000000
006FFFFB00000000
02EFFFE322222100
0CFFFFFFFFFFFF70
5FFFFFFFFFFFFFC0
4FFFFFFFFFFFFFC0
09FFFFFFFFFFFF60
0001111111111000
ENDCHAR
STARTCHAR zcaron
ENCODING 382
SWIDTH 586 0
DWIDTH 14 0
BBX 14 19 0 0
BITMAP
00057200157100
002FFFB8EFFA00
007FFFFFFFFF00
003CFFFFFFE800
000027CEA51000
00000000000000
039AAAAAAAA820
0BFFFFFFFFFFD0
0DFFFFFFFFFFF2
0BFFFFFFFFFFC0
027888CFFFFD20
000007FFFFC100
00008FFFFB1000
000AFFFFA00000
01BFFFFB333310
0CFFFFFFFFFFF3
5FFFFFFFFFFFF7
4FFFFFFFFFFFF6
08EFFFFFFFFFD2
ENDCHAR
STARTCHAR florin
ENCODING 402
SWIDTH 529 0
DWIDTH 13 0
BBX 13 24 0 -6
BITMAP
000000018BCA10
0000004EFFFF40
000003EFFFFF40
00000BFFFFFE10
00001FFFF85100
00003FFFF00000
006CDFFFFCDB10
00EFFFFFFFFF50
01FFFFFFFFFF40
00EFFFFFFFFD10
0014CFFF843000
0000DFFF500000
0000EFFF300000
0001FFFF100000
0002FFFF000000
0004FFFD000000
0006FFFB000000
0007FFFA000000
0009FFF8000000
18AFFFF4000000
9FFFFFD0000000
EFFFFF50000000
EFFFE600000000
25530000000000
ENDCHAR
STARTCHAR circumflex
ENCODING 710
SWIDTH 603 0
DWIDTH 14 0
BBX 10 5 2 14
BITMAP
0001683000
06BFFFFE92
7FFFFFFFFE
5FFFFEFFFD
0AD9206CE4
ENDCHAR
STARTCHAR caron
ENCODING 711
SWIDTH 600 0
DWIDTH 14 0
BBX 10 5 2 14
BITMAP
0572001671
3FFFB8EFF9
7FFFFFFFFF
3CFFFFFFE8
0028CEA500
ENDCHAR
STARTCHAR dotaccent
ENCODING 729
SWIDTH 285 0
DWIDTH 7 0
BBX 5 6 1 16
BITMAP
001000
3EFE40
8FFF90
8FFF90
4FFF50
002100
ENDCHAR
STARTCHAR ring
ENCODING 730
SWIDTH 378 0
DWIDTH 9 0
BBX 7 7 1 15
BITMAP
04CFD400
2EE9DF30
7F302F80
7F302F80
2FD8DF30
04DFE600
00010000
ENDCHAR
STARTCHAR ogonek
ENCODING 731
SWIDTH 570 0
DWIDTH 14 0
BBX 5 6 4 -5
BITMAP
04A930
5FFFC0
BFA950
AFBA60
4FFFD0
038820
ENDCHAR
STARTCHAR tilde
ENCODING 732
SWIDTH 584 0
DWIDTH 14 0
BBX 11 5 1 14
BITMAP
001684006400
03EFFFA9FF40
0DFFFFFFFF40
1EFEAFFFFA00
03B304BB7000
ENDCHAR
STARTCHAR endash
ENCODING 8211
SWIDTH 561 0
DWIDTH 13 0
BBX 14 5 0 4
BITMAP
17888888888730
8FFFFFFFFFFFE0
9FFFFFFFFFFFF1
7FFFFFFFFFFFE0
04666666666520
ENDCHAR
STARTCHAR emdash
ENCODING 8212
SWIDTH 693 0
DWIDTH 17 0
BBX 17 5 0 4
BITMAP
178888888888888400
8FFFFFFFFFFFFFFF20
9FFFFFFFFFFFFFFF40
7FFFFFFFFFFFFFFF20
046666666666665300
ENDCHAR
STARTCHAR quoteleft
ENCODING 8216
SWIDTH 237 0
DWIDTH 6 0
BBX 6 9 0 9
BITMAP
000570
00BFF0
06FE40
0DF900
2FFD50
5FFFF0
6FFFF1
4FFFE0
07AA50
ENDCHAR
STARTCHAR quoteright
ENCODING 8217
SWIDTH 237 0
DWIDTH 6 0
BBX 6 9 0 9
BITMAP
058830
4FFFE0
6FFFF1
5FFFF1
0AFFD0
00DF90
06FF20
5FF800
2A5000
ENDCHAR
STARTCHAR quotesinglbase
ENCODING 8218
SWIDTH 237 0
DWIDTH 6 0
BBX 6 9 0 -4
BITMAP
047620
3FFFD0
6FFFF1
5FFFF1
1BFFD0
00DFA0
04FF30
4FF900
3C7000
ENDCHAR
STARTCHAR quotedblleft
ENCODING 8220
SWIDTH 482 0
DWIDTH 12 0
BBX 11 9 0 9
BITMAP
000570000670
00BFF001CFD0
06FE4008FD30
0DF9001EF700
2FFD504FFC40
5FFFF07FFFD0
6FFFF18FFFE0
4FFFE06FFFD0
07AA5008A930
ENDCHAR
STARTCHAR quotedblright
ENCODING 8221
SWIDTH 482 0
DWIDTH 12 0
BBX 11 9 0 9
BITMAP
058830069820
4FFFE06FFFC0
6FFFF18FFFE0
5FFFF17FFFE0
0AFFD01BFFC0
00DF9001FF80
06FF2008FE20
5FF8007FF600
2A50004A4000
ENDCHAR
STARTCHAR quotedblbase
ENCODING 8222
SWIDTH 482 0
DWIDTH 12 0
BBX 11 9 0 -4
BITMAP
047620047610
3FFFD05FFFB0
6FFFF18FFFE0
5FFFF17FFFE0
1BFFD02DFFC0
00DFA000FF80
04FF3006FF20
4FF9006FF700
3C70005B6000
ENDCHAR
STARTCHAR dagger
ENCODING 8224
SWIDTH 527 0
DWIDTH 13 0
BBX 13 23 0 -5
BITMAP
00004DEB100000
0000BFFF500000
0000BFFF600000
0000BFFF600000
0000BFFF600000
0343CFFF844200
6FFFFFFFFFFF20
9FFFFFFFFFFF40
8FFFFFFFFFFF20
1676DFFF977400
0000BFFF600000
0000BFFF600000
0000BFFF600000
0000BFFF600000
0000BFFF600000
0000BFFF600000
0000BFFF600000
0000BFFF600000
0000BFFF600000
0000BFFF600000
0000BFFF600000
00009FFF400000
00001785000000
ENDCHAR
STARTCHAR daggerdbl
ENCODING 8225
SWIDTH 527 0
DWIDTH 13 0
BBX 13 23 0 -5
BITMAP
00004DEB100000
0000BFFF500000
0000BFFF600000
0000BFFF600000
0000BFFF600000
0343CFFF844200
6FFFFFFFFFFF20
9FFFFFFFFFFF40
8FFFFFFFFFFF20
1676DFFF977400
0000BFFF600000
0000BFFF600000
0000BFFF600000
3CDCEFFFDCDA00
9FFFFFFFFFFF30
9FFFFFFFFFFF30
3CDCEFFFDDEA00
0000BFFF600000
0000BFFF600000
0000BFFF600000
0000BFFF600000
00009FFF400000
00001785000000
ENDCHAR
STARTCHAR bullet
ENCODING 8226
SWIDTH 342 0
DWIDTH 8 0
BBX 8 8 0 4
BITMAP
00001000
03CFFD50
1EFFFFF3
4FFFFFF7
6FFFFFF9
4FFFFFF7
0DFFFFE2
029DDA30
ENDCHAR
STARTCHAR ellipsis
ENCODING 8230
SWIDTH 911 0
DWIDTH 22 0
BBX 22 5 0 0
BITMAP
0476200003762000036630
3FFFD0002FFFE0001EFFE1
6FFFF1005FFFF2003FFFF3
5FFFF1004FFFF2002FFFF3
1BFF90000BFF90000AFFA0
ENDCHAR
STARTCHAR perthousand
ENCODING 8240
SWIDTH 1223 0
DWIDTH 29 0
BBX 28 20 1 -1
BITMAP
0000000000002B40000000000000
006996100000AFA0000000000000
1CFFFFD10003FF30000000000000
8FFFFFF9000BFA00000000000000
DFE55EFE004FF200000000000000
FF9009FF00CF9000000000000000
FFA00BFF05FE1000000000000000
CFFABFFC0CF80000000000000000
5FFFFFF65FE10000000000000000
07EFFF80DF700000000000000000
00134106FE119DDB400018CDC600
0000001EF61DFFFFF500BFFFFF70
0000007FD08FFFFFFD05FFFFFFF1
000001EF50CFE20AFF29FF308FF4
000008FC00DFB006FF3AFE004FF6
00001EF400CFE10AFF29FF207FF5
00009FC0008FFEDFFE06FFEDFFF2
0002FF40002EFFFFF600CFFFFF90
0009FB000002BFFD600019EFE800
0003920000000000000000000000
ENDCHAR
STARTCHAR guilsinglleft
ENCODING 8249
SWIDTH 383 0
DWIDTH 9 0
BBX 9 13 0 0
BITMAP
0000029400
00003EFF40
0003EFFFB0
003EFFFF60
03EFFFF700
2EFFFF7000
9FFFF90000
5FFFFE3000
08FFFFE300
008FFFFE30
0007FFFFB0
00007FFF80
000007E900
ENDCHAR
STARTCHAR guilsinglright
ENCODING 8250
SWIDTH 383 0
DWIDTH 9 0
BBX 9 13 0 0
BITMAP
0294000000
2EFF500000
8FFFF50000
3FFFFF5000
05FFFFF500
005FFFFF40
0006FFFFC0
001DFFFF80
01DFFFFA00
1CFFFFA000
8FFFFA0000
5FFFA00000
07E9000000
ENDCHAR
STARTCHAR fraction
ENCODING 8260
SWIDTH 433 0
DWIDTH 10 0
BBX 12 20 1 -1
BITMAP
0000000006A1
000000001EF5
000000008FC0
00000002FF40
00000009FB00
0000002FF300
000000AFB000
000003FF3000
00000BFA0000
00004FF20000
0000CF900000
0005FE100000
000CF8000000
005FE1000000
00DF70000000
06FE10000000
1EF600000000
7FD000000000
EF5000000000
590000000000
ENDCHAR
STARTCHAR Euro
ENCODING 8364
SWIDTH 612 0
DWIDTH 15 0
BBX 15 19 0 0
BITMAP
0000000477777300
000006EFFFFFFE00
00008FFFFFFFFF10
0005FFFFFFFFFF00
000CFFFFDBBBA500
003FFFF700000000
27AFFFF888872000
9FFFFFFFFFFFB000
7FFFFFFFFFFF8000
00BFFF8111110000
38DFFFC888883000
9FFFFFFFFFFFA000
6EFFFFFFFFFE8000
004FFFF200000000
000EFFFC53333000
0008FFFFFFFFFC00
0001DFFFFFFFFF10
00002CFFFFFFFF10
0000006BEEEEE800
ENDCHAR
STARTCHAR trademark
ENCODING 8482
SWIDTH 840 0
DWIDTH 20 0
BBX 20 11 0 5
BITMAP
03333333101300000310
8FFFFFFFD1EFA000AFE1
9FFFFFFFE3FFF606FFF3
39AEFFBA63FFFE4EFFF3
000CFF3003FFFFFFFFF3
000CFF3003FFFFFFFFF3
000CFF3003FFFFFFEFF3
000CFF3003FFB9F8BFF3
000CFF3003FFB010BFF3
000AFF1002FFA000AFF2
00014200003410001420
ENDCHAR
STARTCHAR minus
ENCODING 8722
SWIDTH 581 0
DWIDTH 14 0
BBX 14 5 0 4
BITMAP
06888888888850
4FFFFFFFFFFFF3
6FFFFFFFFFFFF5
3FFFFFFFFFFFF2
03666666666530
ENDCHAR
STARTCHAR f_f
ENCODING 64256
SWIDTH 803 0
DWIDTH 19 0
BBX 19 19 0 0
BITMAP
00000389820001699600
0000AFFFFA004EFFFF20
0009FFFFFC02EFFFFF40
002FFFFFFA09FFFFFF20
005FFFF9820DFFFC8500
007FFFC0000EFFF40000
18BFFFE8998FFFFA9930
8FFFFFFFFFFFFFFFFFC0
9FFFFFFFFFFFFFFFFFD0
8FFFFFFFFFFFFFFFFFB0
18BFFFD8898FFFFA8820
007FFFC0000EFFF40000
007FFFC0000EFFF40000
007FFFC0000EFFF40000
007FFFC0000EFFF40000
007FFFC0000EFFF40000
007FFFC0000EFFF40000
006FFFB0000EFFF30000
001CFE500007EFB00000
ENDCHAR
STARTCHAR fi
ENCODING 64257
SWIDTH 709 0
DWIDTH 17 0
BBX 17 19 0 0
BITMAP
000003798200488300
00009FFFFA01FFFE00
0008FFFFFC02FFFF10
002FFFFFFA01FFFE00
005FFFFA8200599400
007FFFC00000000000
06BFFFD89600599300
7FFFFFFFFF51FFFE00
9FFFFFFFFF62FFFF10
7FFFFFFFFF42FFFF10
17BFFFE89602FFFF10
007FFFC00002FFFF10
007FFFC00002FFFF10
007FFFC00002FFFF10
007FFFC00002FFFF10
007FFFC00002FFFF10
007FFFC00002FFFF10
006FFFB00002FFFF00
002CFE500000AFE900
ENDCHAR
STARTCHAR fl
ENCODING 64258
SWIDTH 774 0
DWIDTH 19 0
BBX 19 19 0 0
BITMAP
00000379820059820000
00009FFFFA03FFFB0000
0008FFFFFC05FFFD0000
002FFFFFFA05FFFD0000
005FFFFA8205FFFD0000
007FFFC00005FFFD0000
06BFFFD89605FFFD0000
7FFFFFFFFF55FFFD0000
9FFFFFFFFF65FFFD0000
7FFFFFFFFF45FFFD0000
17BFFFE89605FFFD0000
007FFFC00005FFFD0000
007FFFC00005FFFD0000
007FFFC00005FFFD0000
007FFFC00004FFFE1000
007FFFC00003FFFFFD10
007FFFC00001FFFFFF30
006FFFB00000BFFFFF30
002CFE50000019DFFC00
ENDCHAR
STARTCHAR f_f_i
ENCODING 64259
SWIDTH 1059 0
DWIDTH 25 0
BBX 25 19 0 0
BITMAP
00000389820001699600056400
0000AFFFFA004EFFFF208FFF40
0009FFFFFC02EFFFFF40BFFF70
002FFFFFFA09FFFFFF20AFFF60
005FFFF9820DFFFC85002AB910
007FFFC0000EFFF40000000000
18BFFFE8998FFFFA9930178600
8FFFFFFFFFFFFFFFFFC09FFF50
9FFFFFFFFFFFFFFFFFD0BFFF70
8FFFFFFFFFFFFFFFFFB0BFFF70
18BFFFD8898FFFFA8820BFFF70
007FFFC0000EFFF40000BFFF70
007FFFC0000EFFF40000BFFF70
007FFFC0000EFFF40000BFFF70
007FFFC0000EFFF40000BFFF70
007FFFC0000EFFF40000BFFF70
007FFFC0000EFFF40000BFFF70
006FFFB0000EFFF30000AFFF60
001CFE500007EFB000005EFD20
ENDCHAR
STARTCHAR .notdef
ENCODING -1
SWIDTH 500 0
DWIDTH 12 0
BBX 1 1 0 0
BITMAP
00
ENDCHAR
STARTCHAR .null
ENCODING -1
SWIDTH 0 0
DWIDTH 0 0
BBX 1 1 0 0
BITMAP
00
ENDCHAR
STARTCHAR nonmarkingreturn
ENCODING -1
SWIDTH 333 0
DWIDTH 8 0
BBX 1 1 0 0
BITMAP
00
ENDCHAR
STARTCHAR f_t
ENCODING -1
SWIDTH 814 0
DWIDTH 20 0
BBX 20 19 0 0
BITMAP
00000389820000000000
0000AFFFFA0000000000
0009FFFFFC04DEC20000
002FFFFFFA0AFFF70000
005FFFF9820AFFF70000
007FFFC0000AFFF80000
18BFFFE8998DFFFB9940
8FFFFFFFFFFFFFFFFFF1
9FFFFFFFFFFFFFFFFFF2
8FFFFFFFFFFFFFFFFFF1
18BFFFD8898DFFFB8950
007FFFC0000AFFF80000
007FFFC0000AFFF80000
007FFFC0000AFFF80000
007FFFC0000AFFFA0000
007FFFC00007FFFFFD20
007FFFC00002FFFFFF70
006FFFB000007FFFFF70
001CFE50000004BEFD20
ENDCHAR
STARTCHAR t_t
ENCODING -1
SWIDTH 794 0
DWIDTH 19 0
BBX 19 17 0 0
BITMAP
002CED40000AEE700000
006FFFB0002FFFF00000
007FFFB0002FFFF00000
007FFFB0002FFFF00000
18BFFFD999AFFFF89810
8FFFFFFFFFFFFFFFFF90
9FFFFFFFFFFFFFFFFFA0
8FFFFFFFFFFFFFFFFF90
18BFFFD8999FFFF89810
007FFFB0002FFFF00000
007FFFB0002FFFF00000
007FFFB0002FFFF00000
006FFFD0002FFFF30000
004FFFFFE50FFFFFE800
001EFFFFFB0AFFFFFF00
0005FFFFFB02DFFFFF00
00003AEFE50018DFF900
ENDCHAR
STARTCHAR l_l
ENCODING -1
SWIDTH 626 0
DWIDTH 15 0
BBX 15 19 0 0
BITMAP
0499400179710000
0EFFF107FFF80000
1FFFF209FFF90000
1FFFF209FFFA0000
1FFFF209FFFA0000
1FFFF209FFFA0000
1FFFF209FFFA0000
1FFFF209FFFA0000
1FFFF209FFFA0000
1FFFF209FFFA0000
1FFFF209FFFA0000
1FFFF209FFFA0000
1FFFF209FFFA0000
1FFFF208FFFA0000
0FFFF608FFFC4200
0EFFFFA6FFFFFF50
0BFFFFE1FFFFFF90
04FFFFD06FFFFF80
004BDE7004ADEC20
ENDCHAR
STARTCHAR j_j
ENCODING -1
SWIDTH 521 0
DWIDTH 13 0
BBX 16 25 -4 -6
BITMAP
0000026620004640
00000DFFE006FFF5
00001FFFF109FFF8
00000EFFF108FFF7
000004AA50019A81
0000000000000000
0000048840017870
00000EFFE007FFF6
00001FFFF109FFF8
00001FFFF109FFF8
00001FFFF109FFF8
00001FFFF109FFF8
00001FFFF109FFF8
00001FFFF109FFF8
00001FFFF109FFF8
00001FFFF109FFF8
00001FFFF109FFF8
00001FFFF109FFF8
00001FFFF109FFF8
00006FFFE00AFFF7
048AFFFFA38EFFF5
1FFFFFFF3DFFFFF1
2FFFFFF70FFFFFA0
1FFFFE500DFFFC10
0487500003885000
ENDCHAR
ENDFONT
